<svg xmlns="http://www.w3.org/2000/svg" xmlns:xlink="http://www.w3.org/1999/xlink" version="1.1" width="60.046499pt" height="67.23507pt" viewBox="0 0 60.046499 67.23507">
<defs>
<clipPath id="clip_0">
<path d="M0 0H61V68H0Z"/>
</clipPath>
<clipPath id="clip_1">
<path d="M0 0H61V68H0Z"/>
</clipPath>
<clipPath id="clip_2">
<path d="M0 0H61V68H0Z"/>
</clipPath>
<clipPath id="clip_3">
<path d="M0 0H61V68H0Z"/>
</clipPath>
<clipPath id="clip_4">
<path d="M0 0H61V68H0Z"/>
</clipPath>
<clipPath id="clip_5">
<path d="M0 0H61V68H0Z"/>
</clipPath>
<clipPath id="clip_6">
<path d="M0 0H61V68H0Z"/>
</clipPath>
<clipPath id="clip_7">
<path d="M0 0H61V68H0Z"/>
</clipPath>
<clipPath id="clip_8">
<path d="M0 0H61V68H0Z"/>
</clipPath>
<clipPath id="clip_9">
<path d="M0 0H61V68H0Z"/>
</clipPath>
<clipPath id="clip_10">
<path d="M0 0H61V68H0Z"/>
</clipPath>
<clipPath id="clip_11">
<path d="M0 0H61V68H0Z"/>
</clipPath>
<clipPath id="clip_12">
<path d="M0 0H61V68H0Z"/>
</clipPath>
<clipPath id="clip_13">
<path d="M0 0H61V68H0Z"/>
</clipPath>
<clipPath id="clip_14">
<path d="M0 0H61V68H0Z"/>
</clipPath>
<clipPath id="clip_15">
<path d="M0 0H61V68H0Z"/>
</clipPath>
<clipPath id="clip_16">
<path d="M0 0H61V68H0Z"/>
</clipPath>
<clipPath id="clip_17">
<path d="M0 0H61V68H0Z"/>
</clipPath>
<clipPath id="clip_18">
<path d="M0 0H61V68H0Z"/>
</clipPath>
<clipPath id="clip_19">
<path d="M0 0H61V68H0Z"/>
</clipPath>
<clipPath id="clip_20">
<path d="M0 0H61V68H0Z"/>
</clipPath>
<clipPath id="clip_21">
<path d="M0 0H61V68H0Z"/>
</clipPath>
<clipPath id="clip_22">
<path d="M0 0H61V68H0Z"/>
</clipPath>
<clipPath id="clip_23">
<path d="M0 0H61V68H0Z"/>
</clipPath>
<clipPath id="clip_24">
<path d="M0 0H61V68H0Z"/>
</clipPath>
<clipPath id="clip_25">
<path d="M0 0H61V68H0Z"/>
</clipPath>
<clipPath id="clip_26">
<path d="M0 0H61V68H0Z"/>
</clipPath>
<clipPath id="clip_27">
<path d="M0 0H61V68H0Z"/>
</clipPath>
<clipPath id="clip_28">
<path d="M0 0H61V68H0Z"/>
</clipPath>
<clipPath id="clip_29">
<path d="M0 0H61V68H0Z"/>
</clipPath>
<clipPath id="clip_30">
<path d="M0 0H61V68H0Z"/>
</clipPath>
<clipPath id="clip_31">
<path d="M0 0H61V68H0Z"/>
</clipPath>
<clipPath id="clip_32">
<path d="M0 0H61V68H0Z"/>
</clipPath>
<clipPath id="clip_33">
<path d="M0 0H61V68H0Z"/>
</clipPath>
<clipPath id="clip_34">
<path d="M0 0H61V68H0Z"/>
</clipPath>
<clipPath id="clip_35">
<path d="M0 0H61V68H0Z"/>
</clipPath>
<clipPath id="clip_36">
<path d="M0 0H61V68H0Z"/>
</clipPath>
<clipPath id="clip_37">
<path d="M0 0H61V68H0Z"/>
</clipPath>
<clipPath id="clip_38">
<path d="M0 0H61V68H0Z"/>
</clipPath>
<clipPath id="clip_39">
<path d="M0 0H61V68H0Z"/>
</clipPath>
<clipPath id="clip_40">
<path d="M0 0H61V68H0Z"/>
</clipPath>
<clipPath id="clip_41">
<path d="M0 0H61V68H0Z"/>
</clipPath>
<clipPath id="clip_42">
<path d="M0 0H61V68H0Z"/>
</clipPath>
<clipPath id="clip_43">
<path d="M0 0H61V68H0Z"/>
</clipPath>
<clipPath id="clip_44">
<path d="M0 0H61V68H0Z"/>
</clipPath>
<clipPath id="clip_45">
<path d="M0 0H61V68H0Z"/>
</clipPath>
<clipPath id="clip_46">
<path d="M0 0H61V68H0Z"/>
</clipPath>
<clipPath id="clip_47">
<path d="M0 0H61V68H0Z"/>
</clipPath>
<clipPath id="clip_48">
<path d="M0 0H61V68H0Z"/>
</clipPath>
<clipPath id="clip_49">
<path d="M0 0H61V68H0Z"/>
</clipPath>
<clipPath id="clip_50">
<path d="M0 0H61V68H0Z"/>
</clipPath>
<clipPath id="clip_51">
<path d="M0 0H61V68H0Z"/>
</clipPath>
<clipPath id="clip_52">
<path d="M0 0H61V68H0Z"/>
</clipPath>
<clipPath id="clip_53">
<path d="M0 0H61V68H0Z"/>
</clipPath>
<clipPath id="clip_54">
<path d="M0 0H61V68H0Z"/>
</clipPath>
<clipPath id="clip_55">
<path d="M0 0H61V68H0Z"/>
</clipPath>
<clipPath id="clip_56">
<path d="M0 0H61V68H0Z"/>
</clipPath>
<clipPath id="clip_57">
<path d="M0 0H61V68H0Z"/>
</clipPath>
<clipPath id="clip_58">
<path d="M0 0H61V68H0Z"/>
</clipPath>
<clipPath id="clip_59">
<path d="M0 0H61V68H0Z"/>
</clipPath>
<clipPath id="clip_60">
<path d="M0 0H61V68H0Z"/>
</clipPath>
<clipPath id="clip_61">
<path d="M0 0H61V68H0Z"/>
</clipPath>
<clipPath id="clip_62">
<path d="M0 0H61V68H0Z"/>
</clipPath>
<clipPath id="clip_63">
<path d="M0 0H61V68H0Z"/>
</clipPath>
<clipPath id="clip_64">
<path d="M0 0H61V68H0Z"/>
</clipPath>
<clipPath id="clip_65">
<path d="M0 0H61V68H0Z"/>
</clipPath>
<clipPath id="clip_66">
<path d="M0 0H61V68H0Z"/>
</clipPath>
<clipPath id="clip_67">
<path d="M0 0H61V68H0Z"/>
</clipPath>
<clipPath id="clip_68">
<path d="M0 0H61V68H0Z"/>
</clipPath>
<clipPath id="clip_69">
<path d="M0 0H61V68H0Z"/>
</clipPath>
<clipPath id="clip_70">
<path d="M0 0H61V68H0Z"/>
</clipPath>
<clipPath id="clip_71">
<path d="M0 0H61V68H0Z"/>
</clipPath>
<clipPath id="clip_72">
<path d="M0 0H61V68H0Z"/>
</clipPath>
<clipPath id="clip_73">
<path d="M0 0H61V68H0Z"/>
</clipPath>
<clipPath id="clip_74">
<path d="M0 0H61V68H0Z"/>
</clipPath>
<clipPath id="clip_75">
<path d="M0 0H61V68H0Z"/>
</clipPath>
<clipPath id="clip_76">
<path d="M0 0H61V68H0Z"/>
</clipPath>
<clipPath id="clip_77">
<path d="M0 0H61V68H0Z"/>
</clipPath>
<clipPath id="clip_78">
<path d="M0 0H61V68H0Z"/>
</clipPath>
<clipPath id="clip_79">
<path d="M0 0H61V68H0Z"/>
</clipPath>
<clipPath id="clip_80">
<path d="M0 0H61V68H0Z"/>
</clipPath>
<clipPath id="clip_81">
<path d="M0 0H61V68H0Z"/>
</clipPath>
<clipPath id="clip_82">
<path d="M0 0H61V68H0Z"/>
</clipPath>
<clipPath id="clip_83">
<path d="M0 0H61V68H0Z"/>
</clipPath>
<clipPath id="clip_84">
<path d="M0 0H61V68H0Z"/>
</clipPath>
<clipPath id="clip_85">
<path d="M0 0H61V68H0Z"/>
</clipPath>
<clipPath id="clip_86">
<path d="M0 0H61V68H0Z"/>
</clipPath>
<clipPath id="clip_87">
<path d="M0 0H61V68H0Z"/>
</clipPath>
<clipPath id="clip_88">
<path d="M0 0H61V68H0Z"/>
</clipPath>
<clipPath id="clip_89">
<path d="M0 0H61V68H0Z"/>
</clipPath>
<clipPath id="clip_90">
<path d="M0 0H61V68H0Z"/>
</clipPath>
<clipPath id="clip_91">
<path d="M0 0H61V68H0Z"/>
</clipPath>
<clipPath id="clip_92">
<path d="M0 0H61V68H0Z"/>
</clipPath>
<clipPath id="clip_93">
<path d="M0 0H61V68H0Z"/>
</clipPath>
<clipPath id="clip_94">
<path d="M0 0H61V68H0Z"/>
</clipPath>
<clipPath id="clip_95">
<path d="M0 0H61V68H0Z"/>
</clipPath>
<clipPath id="clip_96">
<path d="M0 0H61V68H0Z"/>
</clipPath>
<clipPath id="clip_97">
<path d="M0 0H61V68H0Z"/>
</clipPath>
<clipPath id="clip_98">
<path d="M0 0H61V68H0Z"/>
</clipPath>
<clipPath id="clip_99">
<path d="M0 0H61V68H0Z"/>
</clipPath>
<clipPath id="clip_100">
<path d="M0 0H61V68H0Z"/>
</clipPath>
<clipPath id="clip_101">
<path d="M0 0H61V68H0Z"/>
</clipPath>
<clipPath id="clip_102">
<path d="M0 0H61V68H0Z"/>
</clipPath>
<clipPath id="clip_103">
<path d="M0 0H61V68H0Z"/>
</clipPath>
</defs>
<g>
<g clip-path="url(#clip_0)">
<path d="M23.324 35.52 23.809 34.777H18.484L18.973 35.52ZM23.324 35.52" fill="#ffffff"/>
</g>
<g clip-path="url(#clip_1)">
<path d="M18.234 31.969V34.184H24.051V31.969H23.359V32.961C23.359 33.113 23.227 33.246 23.059 33.246H21.781C21.625 33.246 21.492 33.113 21.492 32.961V31.969H20.789V32.961C20.789 33.113 20.672 33.246 20.504 33.246H19.223C19.055 33.246 18.922 33.113 18.922 32.961V31.969ZM18.234 31.969" fill="#ffffff"/>
</g>
<g clip-path="url(#clip_2)">
<path d="M36.473 16.492C36.543 16.367 36.43 16.234 36.297 16.266L34.293 17.27C34.316 17.313 34.336 17.344 34.352 17.391L34.371 17.379 34.961 17.082C34.984 17.066 35.016 17.082 35.027 17.102 35.051 17.133 35.039 17.168 35.008 17.18L34.402 17.48 34.395 17.488C34.402 17.523 34.402 17.547 34.418 17.582L35.016 17.277C35.039 17.254 35.074 17.27 35.094 17.301 35.105 17.324 35.094 17.355 35.059 17.379L34.426 17.691C34.426 17.723 34.438 17.746 34.438 17.766 34.438 17.766 34.426 17.781 34.426 17.793L35.059 18.113C35.094 18.125 35.105 18.156 35.094 18.18 35.086 18.203 35.074 18.215 35.051 18.215H35.016L34.418 17.914C34.418 17.934 34.402 17.969 34.402 18.004L35.008 18.305C35.039 18.324 35.051 18.355 35.027 18.383 35.027 18.391 35.016 18.402 34.992 18.414 34.984 18.414 34.973 18.414 34.961 18.402L34.371 18.102C34.352 18.156 34.328 18.203 34.293 18.258L36.297 19.258C36.43 19.293 36.527 19.156 36.473 19.039L35.895 17.879C35.852 17.801 35.852 17.711 35.895 17.625ZM36.473 16.492" fill="#ffffff"/>
</g>
<g clip-path="url(#clip_3)">
<path d="M32.621 16.922C32.73 16.953 32.832 16.973 32.934 17.02 32.977 16.887 32.957 16.742 32.867 16.617 32.848 16.594 32.824 16.563 32.801 16.52 32.57 16.184 32.57 15.875 32.57 15.875L31.5 16.711C31.566 16.719 31.633 16.73 31.711 16.742H31.719L32.301 16.266C32.324 16.242 32.355 16.25 32.379 16.273 32.402 16.297 32.402 16.332 32.367 16.352L31.863 16.762C31.898 16.773 31.945 16.773 31.98 16.785L32.402 16.441C32.422 16.418 32.457 16.43 32.477 16.453 32.5 16.477 32.488 16.508 32.469 16.527L32.121 16.809C32.168 16.82 32.199 16.82 32.246 16.832L32.488 16.617C32.52 16.605 32.555 16.605 32.57 16.629 32.59 16.652 32.59 16.688 32.57 16.711L32.379 16.863C32.41 16.863 32.457 16.875 32.488 16.887L32.602 16.797C32.621 16.773 32.656 16.773 32.68 16.797 32.703 16.832 32.688 16.863 32.668 16.887ZM32.621 16.922" fill="#ffffff"/>
</g>
<g clip-path="url(#clip_4)">
<path d="M30.371 16.621C30.383 16.531 30.395 16.453 30.395 16.395 30.305 15.805 29.984 15.652 29.984 15.652L29.305 16.621H29.484L29.859 16.063C29.871 16.031 29.918 16.031 29.941 16.039 29.961 16.063 29.973 16.098 29.949 16.117L29.617 16.605H29.73L30.008 16.207C30.016 16.176 30.059 16.176 30.082 16.184 30.105 16.207 30.117 16.242 30.094 16.262L29.859 16.605H29.973L30.152 16.352C30.16 16.32 30.207 16.32 30.227 16.332 30.25 16.352 30.262 16.387 30.242 16.41L30.105 16.605C30.195 16.621 30.285 16.621 30.371 16.621" fill="#ffffff"/>
</g>
<g clip-path="url(#clip_5)">
<path d="M31.703 18.898C31.613 18.922 31.547 18.93 31.512 18.945L32.523 19.746C32.523 19.746 32.535 19.434 32.758 19.09 32.781 19.055 32.805 19.02 32.824 19 32.938 18.852 32.949 18.676 32.859 18.543 32.758 18.574 32.648 18.621 32.523 18.652L32.625 18.742C32.656 18.766 32.656 18.801 32.637 18.82 32.613 18.844 32.578 18.852 32.559 18.832L32.402 18.699C32.367 18.711 32.336 18.723 32.301 18.734L32.523 18.91C32.547 18.922 32.547 18.969 32.535 18.988 32.512 19.012 32.48 19.012 32.461 18.988L32.18 18.766C32.148 18.777 32.102 18.789 32.066 18.801L32.426 19.09C32.445 19.109 32.461 19.141 32.438 19.164 32.414 19.188 32.383 19.188 32.359 19.18L31.945 18.832C31.902 18.844 31.871 18.852 31.836 18.867L32.336 19.266C32.359 19.289 32.359 19.324 32.336 19.344 32.324 19.367 32.277 19.375 32.258 19.355ZM31.703 18.898" fill="#ffffff"/>
</g>
<g clip-path="url(#clip_6)">
<path d="M29.531 19.961 29.141 19.313V19.305H28.93L29.555 20.293C29.555 20.293 29.742 20.191 29.922 20.027 29.965 19.996 30 19.949 30.02 19.918 30.109 19.785 30.109 19.602 30.02 19.473L29.887 19.258C29.832 19.258 29.773 19.27 29.719 19.27L29.934 19.625C29.941 19.66 29.941 19.691 29.906 19.703 29.887 19.727 29.852 19.715 29.832 19.684L29.586 19.281C29.555 19.281 29.52 19.281 29.496 19.293L29.773 19.77C29.797 19.793 29.789 19.828 29.766 19.836 29.73 19.859 29.695 19.852 29.688 19.828L29.367 19.293H29.266L29.629 19.902C29.641 19.93 29.629 19.961 29.609 19.98 29.578 19.996 29.543 19.98 29.531 19.961" fill="#ffffff"/>
</g>
<g clip-path="url(#clip_7)">
<path d="M25.73 17.711C25.652 17.711 25.602 17.766 25.602 17.844 25.602 17.91 25.652 17.977 25.73 17.977 25.813 17.977 25.867 17.91 25.867 17.844 25.867 17.766 25.813 17.711 25.73 17.711" fill="#ffffff"/>
</g>
<g clip-path="url(#clip_8)">
<path d="M32.934 18.352C32.941 18.352 32.953 18.34 32.965 18.34H33C33.242 18.27 33.508 18.242 33.797 18.242 33.91 18.242 34.02 18.242 34.121 18.25 34.211 18.094 34.254 17.926 34.254 17.762V17.75C34.254 17.586 34.211 17.426 34.121 17.258 34.02 17.27 33.91 17.281 33.797 17.281 33.508 17.281 33.242 17.25 33 17.184H32.965C32.941 17.172 32.934 17.172 32.922 17.16 32.863 17.148 32.816 17.125 32.766 17.117 32.039 16.895 30.938 16.762 29.793 16.762 27.656 16.762 24.742 17.426 24.742 17.949 24.742 17.949 24.742 18.051 24.809 18.152 24.824 18.172 24.844 18.195 24.867 18.219 24.969 18.203 25.063 18.172 25.156 18.129 25.164 18.129 25.164 18.129 25.18 18.117 25.223 18.105 25.266 18.117 25.289 18.16 25.313 18.203 25.289 18.25 25.246 18.27 25.246 18.27 25.23 18.285 25.223 18.285 25.164 18.305 25.102 18.34 25.035 18.352 25.035 18.352 25.02 18.352 25.02 18.363 25.043 18.371 25.055 18.383 25.078 18.395 25.41 18.617 25.98 18.816 26.758 18.953 26.957 18.742 27.082 18.449 27.082 18.129V18.105C27.082 18.059 27.113 18.016 27.16 18.016 27.203 18.016 27.246 18.059 27.246 18.105V18.129C27.246 18.449 27.137 18.75 26.957 18.984 27.566 19.086 28.316 19.141 29.184 19.141 30.238 19.141 31.871 18.742 32.598 18.473 32.695 18.43 32.809 18.383 32.934 18.352M25.789 18.152C25.645 18.152 25.535 18.039 25.535 17.895 25.535 17.75 25.645 17.629 25.789 17.629 25.934 17.629 26.055 17.75 26.055 17.895 26.055 18.039 25.934 18.152 25.789 18.152M27.539 17.57C27.547 17.57 27.547 17.563 27.559 17.563L27.637 17.539H27.648L28.27 17.359C28.305 17.352 28.34 17.359 28.348 17.395 28.348 17.426 28.34 17.449 28.305 17.461L27.656 17.648 27.613 17.66C27.59 17.629 27.566 17.594 27.539 17.57M28.359 17.594C28.371 17.629 28.348 17.66 28.324 17.66L27.691 17.848C27.68 17.816 27.672 17.773 27.656 17.738L28.289 17.563C28.324 17.551 28.348 17.57 28.359 17.594M28.426 18.504H28.258C28.203 18.504 28.148 18.449 28.148 18.383 28.148 18.328 28.203 18.27 28.258 18.27H28.426C28.492 18.27 28.535 18.328 28.535 18.383 28.535 18.449 28.492 18.504 28.426 18.504M28.992 18.719H28.828C28.762 18.719 28.715 18.672 28.715 18.605 28.715 18.551 28.762 18.496 28.828 18.496H28.992C29.047 18.496 29.105 18.551 29.105 18.605 29.105 18.672 29.047 18.719 28.992 18.719M28.992 18.285H28.828C28.762 18.285 28.715 18.227 28.715 18.172 28.715 18.105 28.762 18.051 28.828 18.051H28.992C29.047 18.051 29.105 18.105 29.105 18.172 29.105 18.227 29.047 18.285 28.992 18.285M28.324 18.031C28.238 18.117 28.113 18.172 27.992 18.172 27.926 18.172 27.867 18.16 27.801 18.129L27.672 18.074C27.637 18.059 27.625 18.031 27.637 17.992 27.648 17.961 27.691 17.941 27.715 17.961L27.859 18.016C27.992 18.074 28.137 18.039 28.238 17.941 28.469 17.695 28.848 17.305 29.09 17.047L27.48 17.492C27.445 17.504 27.414 17.48 27.402 17.449 27.391 17.418 27.414 17.383 27.445 17.371L29.258 16.871C29.293 16.859 29.316 16.871 29.336 16.895 29.352 16.914 29.352 16.949 29.328 16.973 29.125 17.191 28.617 17.727 28.324 18.031M29.563 18.504H29.395C29.336 18.504 29.281 18.449 29.281 18.383 29.281 18.328 29.336 18.27 29.395 18.27H29.563C29.629 18.27 29.672 18.328 29.672 18.383 29.672 18.449 29.629 18.504 29.563 18.504M29.563 18.059H29.395C29.336 18.059 29.281 18.016 29.281 17.949 29.281 17.883 29.336 17.84 29.395 17.84H29.563C29.629 17.84 29.672 17.883 29.672 17.949 29.672 18.016 29.629 18.059 29.563 18.059M30.129 18.719H29.961C29.906 18.719 29.848 18.672 29.848 18.605 29.848 18.551 29.906 18.496 29.961 18.496H30.129C30.195 18.496 30.238 18.551 30.238 18.605 30.238 18.672 30.195 18.719 30.129 18.719M30.129 18.285H29.961C29.906 18.285 29.848 18.227 29.848 18.172 29.848 18.105 29.906 18.051 29.961 18.051H30.129C30.195 18.051 30.238 18.105 30.238 18.172 30.238 18.227 30.195 18.285 30.129 18.285M30.129 17.84H29.961C29.906 17.84 29.848 17.797 29.848 17.727 29.848 17.66 29.906 17.617 29.961 17.617H30.129C30.195 17.617 30.238 17.66 30.238 17.727 30.238 17.797 30.195 17.84 30.129 17.84M30.707 18.504H30.539C30.473 18.504 30.43 18.449 30.43 18.383 30.43 18.328 30.473 18.27 30.539 18.27H30.707C30.762 18.27 30.816 18.328 30.816 18.383 30.816 18.449 30.762 18.504 30.707 18.504M30.707 18.059H30.539C30.473 18.059 30.43 18.016 30.43 17.949 30.43 17.883 30.473 17.84 30.539 17.84H30.707C30.762 17.84 30.816 17.883 30.816 17.949 30.816 18.016 30.762 18.059 30.707 18.059M31.273 18.285H31.105C31.039 18.285 30.996 18.227 30.996 18.172 30.996 18.105 31.039 18.051 31.105 18.051H31.273C31.34 18.051 31.383 18.105 31.383 18.172 31.383 18.227 31.34 18.285 31.273 18.285M31.273 17.84H31.105C31.039 17.84 30.996 17.797 30.996 17.727 30.996 17.66 31.039 17.617 31.105 17.617H31.273C31.34 17.617 31.383 17.66 31.383 17.727 31.383 17.797 31.34 17.84 31.273 17.84M31.84 18.059H31.676C31.617 18.059 31.563 18.016 31.563 17.949 31.563 17.883 31.617 17.84 31.676 17.84H31.84C31.906 17.84 31.953 17.883 31.953 17.949 31.953 18.016 31.906 18.059 31.84 18.059" fill="#ffffff"/>
</g>
<g clip-path="url(#clip_9)">
<path d="M44.441 20.441C44.5 20.316 44.398 20.184 44.266 20.215L42.262 21.219C42.285 21.262 42.309 21.293 42.316 21.328H42.34L42.93 21.031C42.949 21.016 42.984 21.031 42.996 21.051 43.02 21.082 43.008 21.121 42.977 21.129L42.371 21.43 42.363 21.441C42.371 21.473 42.371 21.496 42.387 21.527L42.984 21.23C43.008 21.207 43.043 21.219 43.063 21.25 43.074 21.273 43.063 21.309 43.027 21.328L42.395 21.641C42.395 21.664 42.41 21.695 42.41 21.719 42.41 21.719 42.395 21.73 42.395 21.738L43.027 22.063C43.063 22.074 43.074 22.109 43.063 22.129 43.051 22.152 43.043 22.164 43.02 22.164H42.984L42.387 21.863C42.387 21.883 42.387 21.918 42.371 21.953L42.977 22.254C43.008 22.273 43.02 22.309 42.996 22.328 42.996 22.34 42.984 22.352 42.965 22.363 42.949 22.363 42.941 22.363 42.93 22.352L42.34 22.051C42.316 22.109 42.297 22.152 42.262 22.211L44.266 23.211C44.398 23.242 44.5 23.105 44.441 22.984L43.863 21.832C43.82 21.75 43.82 21.664 43.863 21.57ZM44.441 20.441" fill="#ffffff"/>
</g>
<g clip-path="url(#clip_10)">
<path d="M40.594 20.879C40.703 20.914 40.805 20.938 40.902 20.98 40.949 20.848 40.926 20.703 40.84 20.582 40.813 20.559 40.789 20.523 40.77 20.48 40.535 20.145 40.535 19.832 40.535 19.832L39.469 20.668C39.535 20.68 39.602 20.691 39.68 20.703H39.691L40.27 20.227C40.293 20.203 40.324 20.211 40.348 20.234 40.367 20.258 40.367 20.289 40.336 20.313L39.836 20.727C39.871 20.734 39.914 20.734 39.945 20.75L40.367 20.402C40.391 20.379 40.426 20.391 40.445 20.414 40.469 20.438 40.461 20.469 40.438 20.492L40.09 20.77C40.137 20.781 40.168 20.781 40.215 20.793L40.461 20.582C40.492 20.57 40.523 20.57 40.535 20.59 40.559 20.613 40.559 20.648 40.535 20.668L40.348 20.824C40.383 20.824 40.426 20.836 40.461 20.848L40.57 20.758C40.594 20.734 40.621 20.734 40.648 20.758 40.672 20.793 40.656 20.824 40.637 20.848ZM40.594 20.879" fill="#ffffff"/>
</g>
<g clip-path="url(#clip_11)">
<path d="M38.344 20.582C38.352 20.492 38.363 20.414 38.363 20.355 38.273 19.766 37.949 19.613 37.949 19.613L37.273 20.582H37.449L37.828 20.023C37.84 19.992 37.887 19.992 37.906 20.004 37.93 20.023 37.941 20.059 37.918 20.078L37.586 20.582C37.629 20.566 37.66 20.566 37.695 20.566L37.973 20.168C37.984 20.137 38.027 20.137 38.051 20.145 38.074 20.168 38.082 20.203 38.063 20.223L37.828 20.566H37.941L38.117 20.313C38.133 20.281 38.176 20.281 38.195 20.289 38.219 20.313 38.227 20.348 38.207 20.371L38.074 20.566C38.16 20.582 38.25 20.582 38.344 20.582" fill="#ffffff"/>
</g>
<g clip-path="url(#clip_12)">
<path d="M39.672 22.859C39.586 22.883 39.52 22.891 39.484 22.902L40.496 23.703C40.496 23.703 40.508 23.395 40.73 23.051 40.754 23.016 40.777 22.98 40.797 22.961 40.91 22.816 40.922 22.637 40.828 22.504 40.73 22.535 40.617 22.582 40.496 22.613L40.598 22.703C40.633 22.723 40.633 22.758 40.609 22.781 40.586 22.805 40.551 22.816 40.531 22.793L40.375 22.656C40.34 22.672 40.309 22.68 40.273 22.691L40.496 22.871C40.52 22.883 40.52 22.926 40.508 22.949 40.484 22.969 40.453 22.969 40.43 22.949L40.152 22.723C40.121 22.738 40.074 22.75 40.039 22.758L40.398 23.051C40.418 23.07 40.43 23.102 40.406 23.125 40.387 23.148 40.355 23.148 40.332 23.137L39.91 22.793C39.875 22.805 39.84 22.816 39.809 22.824L40.309 23.227C40.332 23.246 40.332 23.281 40.309 23.305 40.297 23.324 40.254 23.336 40.23 23.313ZM39.672 22.859" fill="#ffffff"/>
</g>
<g clip-path="url(#clip_13)">
<path d="M37.504 23.91 37.113 23.266V23.254H36.902L37.523 24.246C37.523 24.246 37.715 24.145 37.891 23.977 37.938 23.945 37.969 23.898 37.988 23.867 38.082 23.73 38.082 23.555 37.988 23.422L37.859 23.211C37.801 23.211 37.75 23.219 37.691 23.219L37.902 23.574C37.914 23.609 37.914 23.641 37.879 23.656 37.859 23.676 37.828 23.664 37.801 23.633L37.559 23.234C37.523 23.234 37.492 23.234 37.457 23.242L37.75 23.723C37.77 23.742 37.758 23.777 37.734 23.789 37.703 23.809 37.668 23.801 37.66 23.777L37.336 23.242H37.238L37.602 23.852C37.613 23.875 37.602 23.91 37.582 23.934 37.559 23.945 37.516 23.934 37.504 23.91" fill="#ffffff"/>
</g>
<g clip-path="url(#clip_14)">
<path d="M33.711 21.93C33.793 21.93 33.844 21.879 33.844 21.797 33.844 21.73 33.793 21.664 33.711 21.664 33.633 21.664 33.582 21.73 33.582 21.797 33.582 21.879 33.633 21.93 33.711 21.93" fill="#ffffff"/>
</g>
<g clip-path="url(#clip_15)">
<path d="M32.711 21.91C32.711 21.91 32.711 22.008 32.777 22.109 32.801 22.129 32.813 22.152 32.836 22.176 32.934 22.168 33.031 22.129 33.121 22.086 33.137 22.086 33.137 22.078 33.145 22.078 33.188 22.051 33.234 22.078 33.258 22.121 33.281 22.168 33.258 22.211 33.223 22.23 33.215 22.23 33.203 22.23 33.203 22.242 33.137 22.266 33.07 22.289 33 22.309H32.988C33.012 22.332 33.031 22.344 33.055 22.355 33.379 22.574 33.945 22.777 34.738 22.91 34.926 22.688 35.051 22.398 35.051 22.086V22.066C35.051 22.02 35.082 21.977 35.125 21.977H35.137C35.18 21.977 35.215 22.008 35.215 22.066V22.086C35.215 22.406 35.102 22.711 34.926 22.945 35.535 23.043 36.281 23.098 37.148 23.098 38.203 23.098 39.84 22.699 40.563 22.43 40.664 22.379 40.773 22.344 40.898 22.309 40.91 22.297 40.922 22.297 40.934 22.297 40.941 22.297 40.953 22.289 40.965 22.289 41.211 22.23 41.477 22.195 41.766 22.195 41.879 22.195 41.988 22.195 42.098 22.211 42.188 22.051 42.234 21.887 42.234 21.723V21.711C42.234 21.543 42.18 21.375 42.098 21.219 41.988 21.23 41.879 21.242 41.766 21.242 41.477 21.242 41.211 21.195 40.965 21.141 40.953 21.141 40.941 21.141 40.934 21.133 40.922 21.133 40.898 21.121 40.891 21.121 40.832 21.109 40.789 21.086 40.742 21.074 40.02 20.84 38.906 20.711 37.762 20.711 35.625 20.711 32.711 21.375 32.711 21.91M39.652 21.797H39.809C39.879 21.797 39.93 21.84 39.93 21.91 39.93 21.965 39.879 22.02 39.809 22.02H39.652C39.586 22.02 39.531 21.965 39.531 21.91 39.531 21.84 39.586 21.797 39.652 21.797M39.074 21.578H39.242C39.309 21.578 39.352 21.621 39.352 21.688 39.352 21.754 39.309 21.797 39.242 21.797H39.074C39.02 21.797 38.961 21.754 38.961 21.688 38.961 21.621 39.02 21.578 39.074 21.578M39.074 22.008H39.242C39.309 22.008 39.352 22.066 39.352 22.129 39.352 22.188 39.309 22.242 39.242 22.242H39.074C39.02 22.242 38.961 22.188 38.961 22.129 38.961 22.066 39.02 22.008 39.074 22.008M38.508 21.797H38.676C38.73 21.797 38.785 21.84 38.785 21.91 38.785 21.965 38.73 22.02 38.676 22.02H38.508C38.441 22.02 38.395 21.965 38.395 21.91 38.395 21.84 38.441 21.797 38.508 21.797M38.508 22.23H38.676C38.73 22.23 38.785 22.289 38.785 22.344 38.785 22.406 38.73 22.453 38.676 22.453H38.508C38.441 22.453 38.395 22.406 38.395 22.344 38.395 22.289 38.441 22.23 38.508 22.23M37.941 21.578H38.105C38.16 21.578 38.219 21.621 38.219 21.688 38.219 21.754 38.16 21.797 38.105 21.797H37.941C37.875 21.797 37.828 21.754 37.828 21.688 37.828 21.621 37.875 21.578 37.941 21.578M37.941 22.008H38.105C38.16 22.008 38.219 22.066 38.219 22.129 38.219 22.188 38.16 22.242 38.105 22.242H37.941C37.875 22.242 37.828 22.188 37.828 22.129 37.828 22.066 37.875 22.008 37.941 22.008M37.941 22.453H38.105C38.16 22.453 38.219 22.5 38.219 22.566 38.219 22.633 38.16 22.676 38.105 22.676H37.941C37.875 22.676 37.828 22.633 37.828 22.566 37.828 22.5 37.875 22.453 37.941 22.453M35.504 21.531C35.516 21.52 35.516 21.52 35.523 21.52L35.617 21.496 36.25 21.309C36.273 21.309 36.305 21.32 36.316 21.352 36.324 21.375 36.305 21.41 36.273 21.418L35.625 21.605 35.582 21.621C35.559 21.586 35.535 21.555 35.504 21.531M36.324 21.555C36.34 21.586 36.324 21.605 36.293 21.621L35.66 21.809C35.66 21.766 35.648 21.73 35.625 21.699L36.258 21.52C36.293 21.512 36.324 21.52 36.324 21.555M36.391 22.453H36.238C36.172 22.453 36.113 22.406 36.113 22.344 36.113 22.289 36.172 22.23 36.238 22.23H36.391C36.461 22.23 36.516 22.289 36.516 22.344 36.516 22.406 36.461 22.453 36.391 22.453M36.961 22.676H36.793C36.727 22.676 36.684 22.633 36.684 22.566 36.684 22.5 36.727 22.453 36.793 22.453H36.961C37.027 22.453 37.074 22.5 37.074 22.566 37.074 22.633 37.027 22.676 36.961 22.676M36.961 22.242H36.793C36.727 22.242 36.684 22.188 36.684 22.129 36.684 22.066 36.727 22.008 36.793 22.008H36.961C37.027 22.008 37.074 22.066 37.074 22.129 37.074 22.188 37.027 22.242 36.961 22.242M37.527 22.453H37.359C37.305 22.453 37.25 22.406 37.25 22.344 37.25 22.289 37.305 22.23 37.359 22.23H37.527C37.594 22.23 37.641 22.289 37.641 22.344 37.641 22.406 37.594 22.453 37.527 22.453M37.527 21.797C37.594 21.797 37.641 21.84 37.641 21.91 37.641 21.965 37.594 22.02 37.527 22.02H37.359C37.305 22.02 37.25 21.965 37.25 21.91 37.25 21.84 37.305 21.797 37.359 21.797ZM35.414 21.328 37.238 20.82C37.262 20.82 37.293 20.828 37.305 20.852 37.316 20.875 37.316 20.91 37.293 20.922 37.094 21.152 36.582 21.688 36.305 21.984 36.215 22.078 36.086 22.121 35.961 22.121 35.902 22.121 35.836 22.109 35.781 22.086L35.641 22.031C35.605 22.02 35.59 21.977 35.605 21.941 35.625 21.922 35.66 21.898 35.691 21.91L35.828 21.977C35.961 22.031 36.113 22 36.203 21.898 36.438 21.652 36.816 21.266 37.059 20.996L35.449 21.453C35.414 21.465 35.379 21.441 35.371 21.41 35.359 21.375 35.379 21.344 35.414 21.328M33.77 21.586C33.902 21.586 34.023 21.699 34.023 21.84 34.023 21.984 33.902 22.109 33.77 22.109 33.625 22.109 33.5 21.984 33.5 21.84 33.5 21.699 33.625 21.586 33.77 21.586" fill="#ffffff"/>
</g>
<g clip-path="url(#clip_16)">
<path d="M28.504 20.441C28.555 20.316 28.461 20.184 28.324 20.215L26.32 21.219C26.344 21.262 26.363 21.293 26.379 21.328H26.398L26.988 21.031C27.012 21.016 27.047 21.031 27.055 21.051 27.078 21.082 27.066 21.121 27.031 21.129L26.434 21.43 26.422 21.441C26.434 21.473 26.434 21.496 26.441 21.527L27.047 21.23C27.066 21.207 27.098 21.219 27.121 21.25 27.133 21.273 27.121 21.309 27.09 21.328L26.457 21.641C26.457 21.664 26.465 21.695 26.465 21.719 26.465 21.719 26.457 21.73 26.457 21.738L27.09 22.063C27.121 22.074 27.133 22.109 27.121 22.129 27.113 22.152 27.098 22.164 27.078 22.164H27.047L26.441 21.863C26.441 21.883 26.434 21.918 26.434 21.953L27.031 22.254C27.066 22.273 27.078 22.309 27.055 22.328 27.055 22.34 27.047 22.352 27.023 22.363 27.012 22.363 27 22.363 26.988 22.352L26.398 22.051C26.379 22.109 26.355 22.152 26.32 22.211L28.324 23.211C28.461 23.242 28.555 23.105 28.504 22.984L27.922 21.832C27.879 21.75 27.879 21.664 27.922 21.57ZM28.504 20.441" fill="#ffffff"/>
</g>
<g clip-path="url(#clip_17)">
<path d="M24.652 20.879C24.762 20.914 24.863 20.938 24.965 20.98 25.008 20.848 24.988 20.703 24.895 20.582 24.875 20.559 24.852 20.523 24.828 20.48 24.594 20.145 24.594 19.832 24.594 19.832L23.531 20.668C23.594 20.68 23.664 20.691 23.742 20.703H23.75L24.332 20.227C24.352 20.203 24.383 20.211 24.406 20.234 24.43 20.258 24.43 20.289 24.395 20.313L23.895 20.727C23.93 20.734 23.977 20.734 24.008 20.75L24.43 20.402C24.453 20.379 24.484 20.391 24.508 20.414 24.531 20.438 24.516 20.469 24.496 20.492L24.152 20.77C24.195 20.781 24.23 20.781 24.273 20.793L24.516 20.582C24.551 20.57 24.586 20.57 24.594 20.59 24.617 20.613 24.617 20.648 24.594 20.668L24.406 20.824C24.441 20.824 24.484 20.836 24.516 20.848L24.629 20.758C24.652 20.734 24.684 20.734 24.707 20.758 24.73 20.793 24.719 20.824 24.695 20.848ZM24.652 20.879" fill="#ffffff"/>
</g>
<g clip-path="url(#clip_18)">
<path d="M22.402 20.582C22.41 20.492 22.426 20.414 22.426 20.355 22.332 19.766 22.012 19.613 22.012 19.613L21.332 20.582H21.512L21.887 20.023C21.902 19.992 21.945 19.992 21.969 20.004 21.988 20.023 22.004 20.059 21.977 20.078L21.645 20.582C21.691 20.566 21.723 20.566 21.758 20.566L22.035 20.168C22.047 20.137 22.09 20.137 22.113 20.145 22.133 20.168 22.145 20.203 22.121 20.223L21.887 20.566H22.004L22.18 20.313C22.188 20.281 22.234 20.281 22.258 20.289 22.277 20.313 22.289 20.348 22.266 20.371L22.133 20.566C22.223 20.582 22.313 20.582 22.402 20.582" fill="#ffffff"/>
</g>
<g clip-path="url(#clip_19)">
<path d="M23.723 22.859C23.633 22.883 23.566 22.891 23.531 22.902L24.543 23.703C24.543 23.703 24.559 23.395 24.777 23.051 24.801 23.016 24.824 22.98 24.844 22.961 24.957 22.816 24.969 22.637 24.879 22.504 24.777 22.535 24.668 22.582 24.543 22.613L24.645 22.703C24.676 22.723 24.676 22.758 24.656 22.781 24.633 22.805 24.602 22.816 24.582 22.793L24.422 22.656C24.391 22.672 24.355 22.68 24.324 22.691L24.543 22.871C24.566 22.883 24.566 22.926 24.559 22.949 24.535 22.969 24.5 22.969 24.477 22.949L24.199 22.723C24.168 22.738 24.121 22.75 24.086 22.758L24.445 23.051C24.465 23.07 24.477 23.102 24.457 23.125 24.434 23.148 24.398 23.148 24.379 23.137L23.969 22.793C23.922 22.805 23.891 22.816 23.855 22.824L24.355 23.227C24.379 23.246 24.379 23.281 24.355 23.305 24.348 23.324 24.297 23.336 24.277 23.313ZM23.723 22.859" fill="#ffffff"/>
</g>
<g clip-path="url(#clip_20)">
<path d="M21.563 23.91 21.176 23.266V23.254H20.965L21.586 24.246C21.586 24.246 21.773 24.145 21.953 23.977 21.996 23.945 22.031 23.898 22.051 23.867 22.145 23.73 22.145 23.555 22.051 23.422L21.918 23.211C21.863 23.211 21.809 23.219 21.75 23.219L21.961 23.574C21.977 23.609 21.977 23.641 21.941 23.656 21.918 23.676 21.883 23.664 21.863 23.633L21.621 23.234C21.586 23.234 21.555 23.234 21.52 23.242L21.809 23.723C21.832 23.742 21.82 23.777 21.797 23.789 21.766 23.809 21.73 23.801 21.719 23.777L21.395 23.242H21.293L21.664 23.852C21.672 23.875 21.664 23.91 21.641 23.934 21.621 23.945 21.574 23.934 21.563 23.91" fill="#ffffff"/>
</g>
<g clip-path="url(#clip_21)">
<path d="M17.762 21.672C17.684 21.672 17.625 21.727 17.625 21.801 17.625 21.871 17.684 21.938 17.762 21.938 17.84 21.938 17.895 21.871 17.895 21.801 17.895 21.727 17.84 21.672 17.762 21.672" fill="#ffffff"/>
</g>
<g clip-path="url(#clip_22)">
<path d="M24.98 22.301C24.996 22.301 25.004 22.301 25.02 22.289 25.262 22.234 25.527 22.199 25.82 22.199 25.93 22.199 26.043 22.199 26.141 22.211 26.23 22.055 26.277 21.887 26.277 21.719V21.711C26.277 21.543 26.23 21.387 26.141 21.223 26.043 21.23 25.93 21.242 25.82 21.242 25.527 21.242 25.262 21.211 25.02 21.141H24.98C24.961 21.129 24.953 21.129 24.938 21.121 24.887 21.109 24.84 21.086 24.785 21.078 24.063 20.852 22.961 20.719 21.813 20.719 19.68 20.719 16.762 21.387 16.762 21.906 16.762 21.906 16.762 22.012 16.832 22.109 16.84 22.133 16.863 22.152 16.887 22.176 16.988 22.164 17.086 22.133 17.176 22.09 17.188 22.09 17.188 22.09 17.199 22.074 17.242 22.066 17.285 22.074 17.309 22.121 17.332 22.164 17.309 22.211 17.266 22.234 17.266 22.234 17.254 22.242 17.242 22.242 17.188 22.266 17.121 22.301 17.051 22.309 17.051 22.309 17.043 22.309 17.043 22.32 17.066 22.332 17.074 22.344 17.098 22.352 17.43 22.578 18 22.777 18.777 22.914 18.977 22.699 19.098 22.398 19.098 22.09V22.066C19.098 22.023 19.133 21.977 19.18 21.977 19.223 21.977 19.266 22.023 19.266 22.066V22.09C19.266 22.41 19.156 22.711 18.977 22.941 19.586 23.043 20.336 23.102 21.203 23.102 22.258 23.102 23.895 22.699 24.617 22.434 24.719 22.387 24.828 22.344 24.953 22.309 24.961 22.309 24.973 22.301 24.98 22.301M17.813 22.109C17.664 22.109 17.555 21.988 17.555 21.855 17.555 21.711 17.664 21.586 17.813 21.586 17.953 21.586 18.078 21.711 18.078 21.855 18.078 21.988 17.953 22.109 17.813 22.109M19.555 21.531C19.566 21.531 19.566 21.52 19.578 21.52L19.656 21.5H19.668L20.289 21.32C20.324 21.309 20.359 21.32 20.367 21.352 20.367 21.387 20.359 21.41 20.324 21.422L19.68 21.609 19.637 21.621C19.613 21.586 19.586 21.555 19.555 21.531M20.379 21.555C20.387 21.586 20.367 21.621 20.344 21.621L19.711 21.813C19.703 21.777 19.688 21.73 19.68 21.695L20.313 21.52C20.344 21.508 20.367 21.531 20.379 21.555M20.445 22.469H20.277C20.227 22.469 20.168 22.41 20.168 22.344 20.168 22.289 20.227 22.234 20.277 22.234H20.445C20.512 22.234 20.555 22.289 20.555 22.344 20.555 22.41 20.512 22.469 20.445 22.469M21.012 22.68H20.844C20.781 22.68 20.734 22.633 20.734 22.566 20.734 22.512 20.781 22.457 20.844 22.457H21.012C21.07 22.457 21.125 22.512 21.125 22.566 21.125 22.633 21.07 22.68 21.012 22.68M21.012 22.242H20.844C20.781 22.242 20.734 22.188 20.734 22.133 20.734 22.066 20.781 22.012 20.844 22.012H21.012C21.07 22.012 21.125 22.066 21.125 22.133 21.125 22.188 21.07 22.242 21.012 22.242M20.344 21.988C20.258 22.074 20.133 22.133 20.012 22.133 19.945 22.133 19.891 22.121 19.824 22.09L19.688 22.031C19.656 22.023 19.645 21.988 19.656 21.953 19.668 21.922 19.711 21.898 19.746 21.922L19.879 21.977C20.012 22.031 20.156 22 20.258 21.898 20.488 21.652 20.867 21.266 21.113 21.012L19.5 21.457C19.469 21.465 19.434 21.441 19.426 21.41 19.41 21.375 19.434 21.34 19.469 21.332L21.281 20.832C21.313 20.82 21.336 20.832 21.359 20.852 21.371 20.875 21.371 20.91 21.348 20.93 21.145 21.152 20.633 21.688 20.344 21.988M21.582 22.469H21.414C21.359 22.469 21.301 22.41 21.301 22.344 21.301 22.289 21.359 22.234 21.414 22.234H21.582C21.645 22.234 21.691 22.289 21.691 22.344 21.691 22.41 21.645 22.469 21.582 22.469M21.582 22.023H21.414C21.359 22.023 21.301 21.977 21.301 21.906 21.301 21.844 21.359 21.797 21.414 21.797H21.582C21.645 21.797 21.691 21.844 21.691 21.906 21.691 21.977 21.645 22.023 21.582 22.023M22.148 22.68H21.992C21.926 22.68 21.871 22.633 21.871 22.566 21.871 22.512 21.926 22.457 21.992 22.457H22.148C22.215 22.457 22.258 22.512 22.258 22.566 22.258 22.633 22.215 22.68 22.148 22.68M22.148 22.242H21.992C21.926 22.242 21.871 22.188 21.871 22.133 21.871 22.066 21.926 22.012 21.992 22.012H22.148C22.215 22.012 22.258 22.066 22.258 22.133 22.258 22.188 22.215 22.242 22.148 22.242M22.148 21.797H21.992C21.926 21.797 21.871 21.754 21.871 21.688 21.871 21.621 21.926 21.574 21.992 21.574H22.148C22.215 21.574 22.258 21.621 22.258 21.688 22.258 21.754 22.215 21.797 22.148 21.797M22.727 22.469H22.559C22.492 22.469 22.449 22.41 22.449 22.344 22.449 22.289 22.492 22.234 22.559 22.234H22.727C22.781 22.234 22.84 22.289 22.84 22.344 22.84 22.41 22.781 22.469 22.727 22.469M22.727 22.023H22.559C22.492 22.023 22.449 21.977 22.449 21.906 22.449 21.844 22.492 21.797 22.559 21.797H22.727C22.781 21.797 22.84 21.844 22.84 21.906 22.84 21.977 22.781 22.023 22.727 22.023M23.293 22.242H23.125C23.059 22.242 23.016 22.188 23.016 22.133 23.016 22.066 23.059 22.012 23.125 22.012H23.293C23.359 22.012 23.402 22.066 23.402 22.133 23.402 22.188 23.359 22.242 23.293 22.242M23.293 21.797H23.125C23.059 21.797 23.016 21.754 23.016 21.688 23.016 21.621 23.059 21.574 23.125 21.574H23.293C23.359 21.574 23.402 21.621 23.402 21.688 23.402 21.754 23.359 21.797 23.293 21.797M23.859 22.023H23.695C23.641 22.023 23.582 21.977 23.582 21.906 23.582 21.844 23.641 21.797 23.695 21.797H23.859C23.926 21.797 23.969 21.844 23.969 21.906 23.969 21.977 23.926 22.023 23.859 22.023" fill="#ffffff"/>
</g>
<g clip-path="url(#clip_23)">
<path d="M24.703 4.441 28.086 6.898C28.195 6.977 28.25 7.145 28.207 7.266L26.918 11.25C26.871 11.371 26.93 11.418 27.039 11.336L30.418 8.879C30.535 8.801 30.699 8.801 30.809 8.879L34.191 11.336C34.305 11.418 34.348 11.371 34.313 11.25L33.023 7.266C32.98 7.145 33.031 6.977 33.133 6.898L36.527 4.441C36.629 4.363 36.605 4.297 36.484 4.297H32.289C32.168 4.297 32.02 4.195 31.977 4.074L30.688 .09C30.645-.031 30.578-.031 30.543 .09L29.238 4.074C29.207 4.195 29.063 4.297 28.93 4.297H24.746C24.613 4.297 24.594 4.363 24.703 4.441" fill="#ffffff"/>
</g>
<g clip-path="url(#clip_24)">
<path d="M61.93 43.258C61.863 42.836 61.621 42.492 61.297 42.328H61.309C61.488 41.859 61.941 41.836 62.289 41.625 61.863 41.746 61.539 41.668 61.074 42.004 61.117 41.824 61.117 41.648 61.098 41.457 60.984 40.77 60.41 40.313 59.805 40.445 59.594 40.492 59.418 40.602 59.273 40.746 59.094 40.211 58.762 39.855 58.305 39.887 58.605 39.887 59.039 40.566 58.496 40.727 57.773 40.922 57.293 41.758 57.426 42.617 57.504 43.09 57.762 43.484 58.082 43.715 58.219 43.805 58.293 43.961 58.16 44.105 58.16 44.105 57.293 44.563 56.559 45.684 56.637 45.418 56.711 45.152 56.781 44.895 56.781 44.895 57.184 42.793 57.16 40.313 57.348 39.766 57.703 38.832 58.07 38.32 58.227 38.141 58.395 38 58.617 38.023 58.816 38.043 58.984 38.09 59.129 38.141 59.637 38.32 60.242 38.367 60.715 38.055 61.172 37.742 61.43 37.121 61.297 36.508 61.242 36.262 61.129 36.043 60.984 35.875 61.074 35.605 61.098 35.309 61.031 35.02 60.863 34.23 60.184 33.758 59.496 33.949 59.273 34.02 59.07 34.148 58.918 34.328 58.672 34.23 58.395 34.207 58.125 34.281 57.535 34.449 57.125 35.051 57.105 35.719 57.09 36.086 57.207 36.473 57.371 36.785 57.469 36.961 57.594 37.121 57.746 37.289 57.969 37.543 58.16 37.742 57.949 38.109 57.926 38.141 57.906 38.188 57.883 38.223 57.883 38.223 57.449 38.801 57.137 39.645 57.125 39.211 57.09 38.766 57.039 38.332 56.848 37.086 56.836 35.906 56.914 34.66 56.961 33.727 56.938 33.305 57.371 32.516 57.461 32.348 57.563 32.203 57.672 32.113 57.793 32.016 57.914 32.023 57.949 32.203 58.094 33.016 58.773 33.539 59.484 33.383 59.652 33.348 59.805 33.281 59.938 33.184 60.363 32.871 61.074 32.68 61.172 33.473 61.23 32.938 60.852 32.449 60.453 32.492 61.066 32.359 61.465 31.684 61.352 30.98 61.285 30.602 61.086 30.301 60.82 30.109 60.789 30.09 60.754 30.066 60.73 30.047 60.906 29.59 61.363 29.555 61.707 29.344 61.285 29.469 60.965 29.402 60.496 29.723 60.543 29.535 60.543 29.344 60.508 29.145 60.395 28.566 59.953 28.164 59.449 28.145 59.363 28.145 59.273 28.145 59.184 28.152 58.996 28.199 58.816 28.289 58.672 28.422 58.496 27.922 58.172 27.59 57.723 27.609 58.027 27.609 58.461 28.289 57.914 28.445 57.191 28.656 56.711 29.477 56.848 30.344 56.922 30.813 57.184 31.203 57.504 31.438 57.637 31.535 57.715 31.691 57.582 31.824 57.426 31.992 57.305 32.227 57.191 32.414 57.082 32.625 56.98 32.781 56.879 32.77 56.77 32.023 56.57 31.27 56.48 30.512 56.426 30.047 56.414 29.555 56.449 28.965 56.469 28.668 56.504 28.379 56.535 28.043 56.547 27.977 56.547 27.922 56.559 27.855 56.582 27.809 56.68 27.676 56.711 27.609 56.711 27.609 56.836 27.328 57.07 27.176 57.07 27.176 56.824 27.531 56.77 27.688 57.781 27.875 57.672 26.664 57.672 26.664 56.66 26.527 56.691 27.555 56.691 27.555 56.691 27.555 56.637 27.676 56.57 27.707 56.602 27.445 56.637 27.199 56.66 26.941 56.691 26.441 56.813 26.074 57.105 25.785L57.383 25.465C57.535 25.281 57.703 25.152 57.926 25.16 58.125 25.184 58.293 25.23 58.438 25.281 58.949 25.465 59.551 25.508 60.031 25.195 60.484 24.895 60.73 24.27 60.605 23.648 60.551 23.406 60.441 23.191 60.297 23.016 60.297 23.016 60.328 22.914 60.34 22.77 60.363 22.637 60.375 22.516 60.363 22.371 60.363 22.359 60.363 22.348 60.352 22.336 60.352 22.281 60.352 22.215 60.34 22.16 60.176 21.379 59.484 20.902 58.805 21.09 58.582 21.156 58.383 21.293 58.219 21.469 57.984 21.367 57.703 21.348 57.438 21.426 56.836 21.59 56.438 22.191 56.414 22.859 56.406 23.227 56.516 23.629 56.68 23.926 56.781 24.105 56.902 24.27 57.047 24.43 57.281 24.684 57.461 24.883 57.258 25.254 57.238 25.297 57.215 25.328 57.184 25.363L57.039 25.551C56.902 25.676 56.781 25.82 56.66 26.02 56.617 25.086 56.258 24.207 56.059 23.281 55.949 22.758 55.867 22.238 55.824 21.605 55.816 21.535 55.816 21.469 55.801 21.402 55.793 21.215 55.793 21.023 55.816 20.855 55.836 20.668 55.91 20.492 56.047 20.223 56.305 19.711 56.48 19.055 56.145 18.434 56.406 19.078 56.18 19.512 55.902 20.035 55.836 20.191 55.746 20.324 55.703 20.469 55.605 19.969 55.371 19.547 55.109 19.133 55.059 19.055 55.012 18.977 54.969 18.898 54.934 18.844 55.012 18.73 55.012 18.73 55.012 18.73 55.559 18.5 55.203 17.777 55.203 17.777 54.535 18 54.914 18.711 54.98 18.633 55.102 18.367 55.102 18.367 55.078 18.566 54.98 18.73 54.98 18.73 54.957 18.754 54.945 18.801 54.922 18.832 54.902 18.789 54.867 18.746 54.844 18.703 54.77 18.555 54.68 18.367 54.621 18.176 54.535 17.898 54.57 17.844 54.703 17.609 54.902 17.266 54.934 16.699 54.758 16.117 54.512 15.328 53.945 14.84 53.508 15.02 53.066 15.207 52.91 16 53.164 16.785 53.34 17.375 53.699 17.797 54.055 17.898 54.309 17.977 54.359 17.965 54.477 18.266 54.613 18.621 54.813 18.934 54.992 19.234 55.066 19.332 55.109 19.445 55.16 19.555 55.109 19.535 55.059 19.48 55.059 19.48 55.059 19.48 54.844 18.711 54.055 19.152 54.055 19.152 54.246 20.102 55.023 19.613 54.945 19.512 54.668 19.32 54.668 19.32 54.879 19.367 55.059 19.535 55.059 19.535 55.078 19.555 55.16 19.613 55.211 19.645 55.336 19.922 55.445 20.203 55.504 20.523 55.566 20.813 55.59 21.113 55.613 21.414 55.625 21.48 55.625 21.547 55.633 21.605 55.648 21.805 55.656 21.98 55.668 22.168 55.734 22.902 55.867 23.539 56.059 24.25 56.137 24.504 56.191 24.773 56.238 25.043 56.238 25.043 56.004 24.262 55.148 23.418 54.98 23.25 54.914 23.016 55.066 22.793 55.324 22.426 55.402 21.926 55.246 21.461 55.09 21.035 54.781 20.746 54.422 20.66 54.121 20.578 54.023 20.023 54.289 19.801 54.012 19.969 53.887 20.266 53.91 20.578 53.633 20.258 53.223 20.145 52.832 20.324 52.531 20.469 52.309 20.77 52.242 21.113 52.086 21.133 51.941 21.191 51.797 21.277 51.309 21.59 51.063 22.27 51.219 22.883 51.273 23.105 51.387 23.281 51.508 23.438 51.543 23.492 51.563 23.539 51.598 23.594 51.598 23.594 51.586 23.684 51.586 23.816 51.578 23.996 51.586 24.172 51.645 24.352 51.813 24.832 52.211 25.117 52.645 25.117 52.633 25.473 52.742 25.832 53.012 25.996 52.809 25.762 52.91 25.281 53.18 25.195H53.223C53.457 25.281 53.711 25.281 53.945 25.172 54.223 25.051 54.422 24.809 54.535 24.504 54.578 24.359 54.621 24.172 54.621 24.008 54.621 23.672 54.855 23.551 55.125 23.695 55.078 23.629 55.547 24.16 55.836 24.727 56.09 25.23 56.313 25.762 56.348 26.285 56.367 26.598 56.336 26.922 56.305 27.242 56.203 27.219 56.145 27.02 56.145 27.02 56.145 27.02 56.305 25.719 55.059 25.75 55.059 25.75 54.781 27.277 56.035 27.176 55.992 26.973 55.734 26.484 55.734 26.484 55.992 26.719 56.113 27.09 56.113 27.09 56.145 27.176 56.246 27.375 56.281 27.43 56.246 27.609 56.223 27.801 56.203 27.988 56.145 28.508 56.09 28.855 56.07 29.266 56.047 29.789 56.059 30.133 56.113 30.648 55.836 29.934 55.336 29.578 55.336 29.578 54.879 29.211 54.781 28.879 55.102 28.41 55.234 28.211 55.438 28.063 55.648 28.055 55.457 28.012 55.27 28.063 55.133 28.152 55.168 27.977 55.18 27.785 55.148 27.598 55.012 26.82 54.332 26.316 53.633 26.484 53.5 26.508 53.367 26.563 53.246 26.645 53.145 26.621 53.02 26.621 52.91 26.645 52.574 26.719 52.328 26.984 52.23 27.32 51.863 27.398 51.586 27.754 51.563 28.164 51.563 28.32 51.586 28.465 51.629 28.602 51.41 28.855 51.297 29.234 51.367 29.621 51.41 29.891 51.527 30.109 51.688 30.27 51.688 30.289 51.688 30.301 51.695 30.32 51.73 30.523 51.797 30.699 51.887 30.859 51.898 30.867 51.898 30.883 51.898 30.891 51.906 30.891 51.906 30.891 51.906 30.902 51.93 30.945 51.965 31.004 52 31.047 52.051 31.121 52.133 31.191 52.219 31.258 52.531 31.516 52.934 31.637 53.355 31.547 53.922 31.414 54.309 30.91 54.477 30.336 54.59 29.934 54.656 29.703 54.957 29.734 55.09 29.754 55.227 29.836 55.336 29.934 55.535 30.145 55.891 30.59 56.113 31.379 56.191 31.648 56.305 31.992 56.367 32.359 56.449 32.816 56.48 33.227 56.492 33.648 56.414 33.605 56.359 33.43 56.359 33.43 56.359 33.43 56.516 32.137 55.27 32.156 55.27 32.156 54.992 33.691 56.246 33.594 56.203 33.383 55.949 32.906 55.949 32.906 56.203 33.125 56.324 33.504 56.324 33.504 56.359 33.594 56.469 33.805 56.492 33.852 56.492 34.094 56.48 34.348 56.457 34.629 56.391 35.453 56.391 36.309 56.449 37.141 56.215 36.664 55.836 36.277 55.836 36.277 55.691 36.086 55.613 35.875 55.758 35.652 56.012 35.285 56.09 34.785 55.934 34.316 55.793 33.895 55.469 33.605 55.109 33.516 54.813 33.43 54.723 32.871 54.98 32.66 54.703 32.824 54.578 33.125 54.602 33.43 54.324 33.117 53.91 33.004 53.523 33.184 53.223 33.328 53.012 33.617 52.934 33.973 52.832 33.984 52.73 34.004 52.633 34.063 52.008 34.34 51.711 35.148 51.953 35.863 52.031 36.086 52.156 36.277 52.297 36.418 52.297 36.418 52.285 36.473 52.285 36.539 52.254 36.766 52.254 36.984 52.328 37.207 52.496 37.688 52.898 37.977 53.332 37.977 53.32 38.32 53.434 38.688 53.699 38.844 53.5 38.613 53.609 38.133 53.879 38.043 54.113 38.141 54.379 38.141 54.633 38.031 54.914 37.898 55.109 37.652 55.227 37.363 55.27 37.223 55.313 37.031 55.313 36.863 55.313 36.52 55.523 36.352 55.734 36.563 56.457 37.297 56.637 38.754 56.648 38.898 56.668 39.078 56.68 39.297 56.703 39.543 56.637 39.488 56.594 39.344 56.594 39.344 56.594 39.344 56.75 38.055 55.504 38.074 55.504 38.074 55.234 39.613 56.48 39.508 56.449 39.297 56.18 38.824 56.18 38.824 56.438 39.043 56.57 39.41 56.57 39.41 56.594 39.488 56.66 39.633 56.703 39.711 56.734 40.559 56.703 41.758 56.492 43.324 56.406 43.004 56.27 42.668 56.027 42.438 55.613 42.035 55.469 41.734 55.793 41.27 55.926 41.07 56.121 40.922 56.348 40.914 56.145 40.871 55.961 40.922 55.824 41.016 55.859 40.836 55.867 40.637 55.836 40.445 55.703 39.676 55.035 39.176 54.324 39.332 54.191 39.367 54.055 39.422 53.945 39.5 53.832 39.465 53.711 39.465 53.602 39.5 53.266 39.566 53.02 39.844 52.918 40.18 52.555 40.258 52.277 40.602 52.254 41.023 52.254 41.18 52.277 41.324 52.32 41.457 52.098 41.715 51.988 42.094 52.051 42.48 52.098 42.734 52.219 42.961 52.379 43.129 52.379 43.137 52.387 43.16 52.387 43.18 52.531 44.027 53.266 44.57 54.043 44.395 54.613 44.273 55.047 43.77 55.168 43.18 55.211 42.961 55.277 42.648 55.535 42.605 55.68 42.582 55.836 42.668 55.926 42.816 56.078 43.047 56.313 43.57 56.313 44.418 55.836 46.922 54.867 49.043 54.145 50.633 54.434 50.523 54.723 50.402 54.992 50.289 55.234 49.688 55.504 48.977 55.801 48.152L56.258 46.84C56.258 46.84 57.004 45.094 58.25 44.395 58.383 44.316 58.496 44.309 58.527 44.48 58.672 45.297 59.348 45.82 60.063 45.664 60.227 45.629 60.387 45.563 60.52 45.465 60.941 45.152 61.652 44.961 61.75 45.742 61.809 45.262 61.508 44.828 61.141 44.781 61.242 44.73 61.328 44.672 61.422 44.594 61.801 44.316 62.02 43.793 61.93 43.258M57.906 36.852C57.648 36.676 57.461 36.371 57.383 36.008 57.227 35.293 57.582 34.582 58.172 34.418 58.773 34.25 59.375 34.684 59.527 35.395 59.563 35.551 59.574 35.707 59.551 35.863 59.66 35.785 59.773 35.719 59.906 35.688 60.461 35.52 61.031 35.918 61.172 36.563 61.309 37.207 60.965 37.863 60.41 38.023 60.008 38.133 59.594 37.977 59.348 37.633 59.895 37.418 60.207 36.863 60.207 36.352 60.105 36.609 59.973 36.809 59.82 36.977 58.793 37.965 58.473 36.707 59.164 35.852 58.75 36.109 58.496 36.633 58.496 37.031 58.039 36.809 57.773 35.785 57.938 35.219 57.68 35.707 57.738 36.352 57.906 36.852M59.527 30.355C59.906 30.391 60.309 29.824 60.309 29.824 60.105 30.488 59.75 30.523 59.75 30.523 60.684 31.203 60.227 32.203 60.227 32.203 60.484 30.824 59.184 30.625 59.184 30.625 59.594 29.367 58.715 28.723 58.715 28.723 59.762 29.344 59.527 30.355 59.527 30.355M57.215 23.996C56.961 23.816 56.77 23.516 56.68 23.16 56.535 22.449 56.891 21.734 57.484 21.559 58.082 21.391 58.684 21.836 58.84 22.547 58.871 22.691 58.871 22.852 58.859 23.004 58.961 22.926 59.082 22.859 59.215 22.828 59.773 22.668 60.34 23.063 60.484 23.703 60.621 24.352 60.273 25.008 59.707 25.16 59.305 25.281 58.906 25.117 58.66 24.773 59.195 24.57 59.516 24.016 59.516 23.492 59.418 23.75 59.285 23.961 59.117 24.117 58.105 25.109 57.781 23.852 58.473 22.996 58.059 23.25 57.805 23.77 57.793 24.172 57.348 23.949 57.082 22.926 57.238 22.359 56.992 22.852 57.047 23.492 57.215 23.996M54.469 17.188C54.477 16.777 54.301 16.309 53.945 16.086 54.234 16.328 54.387 16.82 54.277 17.23 54.133 16.988 53.965 16.887 53.734 16.742 53.633 16.676 53.543 16.598 53.465 16.508 53.211 16.211 53.086 15.773 53.23 15.375 53.313 15.23 53.414 15.129 53.531 15.082 53.887 14.93 54.344 15.297 54.59 15.906 54.746 16.473 54.723 16.91 54.469 17.188M53.523 22.969C52.117 23.438 52.809 24.773 52.809 24.773 52.066 23.527 52.73 23.027 52.73 23.027 52.117 22.793 51.754 23.449 51.754 23.449 52.051 22.594 52.707 22.559 52.707 22.559 52.141 22.102 52.297 21.391 52.297 21.391 52.398 22.191 52.875 22.27 52.875 22.27 52.898 20.711 54.031 20.805 54.031 20.805 52.434 21.469 53.523 22.969 53.523 22.969M52.211 27.422C52.176 27.555 52.176 27.699 52.199 27.832 52.23 27.988 52.285 28.133 52.363 28.254 52.297 28.254 52.23 28.254 52.168 28.277 51.988 28.313 51.832 28.398 51.711 28.52 51.688 28.477 51.676 28.422 51.664 28.363 51.598 27.941 51.832 27.52 52.211 27.422M51.676 30.09C51.555 29.957 51.477 29.789 51.441 29.59 51.355 29.074 51.652 28.59 52.098 28.488 52.277 28.445 52.445 28.477 52.598 28.555 52.031 28.801 51.652 29.41 51.676 30.09M52.309 27.754C52.23 27.309 52.488 26.875 52.875 26.785 52.941 26.773 53.012 26.762 53.078 26.773 52.707 27.098 52.508 27.633 52.598 28.164 52.598 28.211 52.613 28.254 52.621 28.289 52.465 28.176 52.344 27.988 52.309 27.754M54.543 29.391C54.543 29.391 54.344 30.391 53.82 30.793 53.82 30.793 54.055 30.535 54.156 30 53.668 30.313 52.875 30.133 52.875 30.133 52.875 30.133 54.055 30.121 54.215 29.164 54.367 28.211 53.277 27.664 53.277 27.664 53.277 27.664 54.223 27.707 54.469 28.777 54.523 28.668 54.656 28.457 54.934 28.289 54.934 28.289 54.68 28.656 54.543 29.391M54.223 35.797C52.82 36.254 53.508 37.586 53.508 37.586 52.766 36.34 53.422 35.852 53.422 35.852 52.82 35.605 52.453 36.262 52.453 36.262 52.754 35.406 53.414 35.383 53.414 35.383 52.844 34.93 53 34.219 53 34.219 53.102 35.008 53.578 35.082 53.578 35.082 53.602 33.539 54.734 33.617 54.734 33.617 53.129 34.281 54.223 35.797 54.223 35.797M52.898 40.281C52.875 40.41 52.867 40.543 52.891 40.688 52.918 40.848 52.977 40.988 53.055 41.102 52.988 41.102 52.918 41.113 52.855 41.125 52.676 41.168 52.52 41.258 52.398 41.379 52.379 41.336 52.363 41.277 52.355 41.227 52.285 40.789 52.52 40.379 52.898 40.281M52.363 42.938C52.254 42.816 52.168 42.648 52.133 42.449 52.043 41.934 52.344 41.438 52.785 41.336 52.969 41.301 53.129 41.324 53.289 41.402 52.723 41.656 52.344 42.27 52.363 42.938M53 40.613C52.918 40.168 53.18 39.734 53.566 39.645 53.633 39.625 53.699 39.625 53.77 39.625 53.398 39.953 53.199 40.477 53.289 41.023 53.297 41.07 53.297 41.102 53.313 41.148 53.156 41.035 53.031 40.848 53 40.613M55.27 42.191C55.27 42.191 55.066 43.191 54.543 43.594 54.543 43.594 54.781 43.336 54.867 42.805 54.379 43.113 53.602 42.938 53.602 42.938 53.602 42.938 54.781 42.926 54.934 41.969 55.09 41.016 54 40.457 54 40.457 54 40.457 54.945 40.516 55.191 41.578 55.246 41.469 55.379 41.258 55.656 41.09 55.656 41.09 55.395 41.457 55.27 42.191M60.82 44.539C61.086 43.16 59.773 42.961 59.773 42.961 60.199 41.703 59.305 41.059 59.305 41.059 60.363 41.68 60.129 42.691 60.129 42.691 60.496 42.727 60.906 42.16 60.906 42.16 60.707 42.828 60.352 42.871 60.352 42.871 61.285 43.535 60.82 44.539 60.82 44.539" fill="#ffffff"/>
</g>
<g clip-path="url(#clip_25)">
<path d="M1.414 22.781C1.836 23.359 2.281 24.227 2.68 25.273 2.813 25.039 2.957 24.859 3.082 24.773 3.125 24.738 3.184 24.73 3.27 24.73 2.871 23.66 2.324 22.805 1.633 22.371 1.535 22.305 1.223 22.227 .867 22.191 1.047 22.336 1.223 22.523 1.414 22.781" fill="#ffffff"/>
</g>
<g clip-path="url(#clip_26)">
<path d="M3.152 26.609C3.418 27.465 3.91 28.988 4.102 29.957 3.996 28.613 3.629 26.832 3.512 26.051 3.398 26.219 3.273 26.406 3.152 26.609" fill="#ffffff"/>
</g>
<g clip-path="url(#clip_27)">
<path d="M4.773 27.129C4.75 27.539 4.73 27.953 4.73 28.34 4.898 27.801 5.086 27.262 5.285 26.762 6.086 23.961 7.328 21.469 8.344 20.246 8.641 19.887 8.922 19.633 9.18 19.477 9.113 19.465 8.523 19.633 8.398 19.676 6.496 20.309 5.363 23.961 4.773 27.129" fill="#ffffff"/>
</g>
<g clip-path="url(#clip_28)">
<path d="M4.621 29.328C4.621 29.152 4.59 27.918 4.578 27.238 4.57 26.949 4.578 26.648 4.602 26.359 5.016 21.668 6.559 16.094 8.152 13.684 5.547 15.906 4.477 21.066 4.223 24.98 4.191 26.309 4.324 29.254 4.324 29.254ZM4.621 29.328" fill="#ffffff"/>
</g>
<g clip-path="url(#clip_29)">
<path d="M1.813 27.578C1.883 27.367 1.934 27.156 2 26.969 1.559 26.289 1.125 25.789 .789 25.578 .559 25.434 .305 25.367 .023 25.379H0C.566 25.867 1.199 26.637 1.813 27.578" fill="#ffffff"/>
</g>
<g clip-path="url(#clip_30)">
<path d="M2.191 28.199C2.617 28.922 3.793 31.004 4.129 31.863L4.137 31.516C3.816 30.516 2.895 28.523 2.461 27.746 2.359 27.91 2.273 28.066 2.191 28.199" fill="#ffffff"/>
</g>
<g clip-path="url(#clip_31)">
<path d="M4.781 28.879C4.781 29.047 4.738 29.66 4.793 29.648 5.793 26.668 7.863 23.723 9.363 22.563 9.344 22.563 9.32 22.551 9.297 22.551 8.965 22.563 8.656 22.641 8.387 22.797 7.34 23.395 5.563 25.988 4.781 28.879" fill="#ffffff"/>
</g>
<g clip-path="url(#clip_32)">
<path d="M4.871 30.531V31.23C5.52 29.75 6.934 27.16 7.645 26.48 7.457 26.504 7.277 26.547 7.121 26.656 6.586 27.016 5.531 28.551 4.871 30.531" fill="#ffffff"/>
</g>
<g clip-path="url(#clip_33)">
<path d="M7.574 26.238C7.473 26.293 7.383 26.371 7.293 26.461 7.648 26.34 8.113 26.395 8.629 26.527 9.117 26.664 9.598 26.883 10.051 27.195 10.219 27.305 10.383 27.441 10.516 27.563 10.516 27.563 10.008 26.629 8.961 26.219 8.449 26.051 7.949 26.027 7.574 26.238" fill="#ffffff"/>
</g>
<g clip-path="url(#clip_34)">
<path d="M3.883 26.52C4.008 27.398 4.105 28.512 4.172 29.578 4.184 29.813 4.195 30.059 4.195 30.305 4.184 28.156 4.051 26.066 3.895 25.488 3.852 25.508 3.805 25.551 3.738 25.609 3.781 25.844 3.84 26.156 3.883 26.52" fill="#ffffff"/>
</g>
<g clip-path="url(#clip_35)">
<path d="M1.922 28.172C2.77 26.734 3.488 25.668 3.867 25.211 3.848 25.066 3.824 24.965 3.816 24.922 3.68 24.891 3.523 24.867 3.414 24.867H3.359C2.98 25.148 2.379 26.414 1.891 28.227 1.902 28.203 1.91 28.191 1.922 28.172" fill="#ffffff"/>
</g>
<g clip-path="url(#clip_36)">
<path d="M4.941 42.281C5.023 42.262 5.121 42.25 5.199 42.23 5.301 42.215 5.379 42.207 5.445 42.207 5.355 41.66 5.309 41.316 5.301 41.238L5.258 40.715C5.242 40.516 5.211 40.191 5.199 40.004 5.121 40.016 4.898 40.047 4.723 40.039 4.746 40.492 4.777 40.961 4.789 41.07 4.797 41.203 4.855 41.648 4.941 42.281" fill="#ffffff"/>
</g>
<g clip-path="url(#clip_37)">
<path d="M5.684 47.371C5.758 47.348 5.852 47.34 5.938 47.328 6.063 47.305 6.148 47.297 6.215 47.297 6.07 46.328 5.914 45.293 5.77 44.359 5.691 43.867 5.625 43.422 5.559 43.012 5.516 43.023 5.473 43.035 5.414 43.047 5.262 43.066 5.148 43.082 5.059 43.082 5.191 44.012 5.359 45.137 5.516 46.191 5.57 46.594 5.625 46.992 5.684 47.371" fill="#ffffff"/>
</g>
<g clip-path="url(#clip_38)">
<path d="M5.172 39.551C5.121 38.836 4.996 37.461 4.953 36.914 4.844 36.922 4.695 36.945 4.574 36.938 4.598 37.57 4.676 38.902 4.707 39.504 4.73 39.504 5.055 39.551 5.172 39.551" fill="#ffffff"/>
</g>
<g clip-path="url(#clip_39)">
<path d="M4.953 36.441C4.898 36.441 4.754 36.453 4.609 36.477 4.555 36.484 4.52 36.496 4.5 36.496 4.5 36.539 4.508 36.621 4.52 36.664 4.586 36.664 4.754 36.664 4.91 36.641 4.941 36.629 4.965 36.629 4.977 36.621 4.977 36.574 4.965 36.484 4.953 36.441" fill="#ffffff"/>
</g>
<g clip-path="url(#clip_40)">
<path d="M5.164 39.871C5.195 39.871 5.215 39.859 5.238 39.859V39.777C5.027 39.734 4.828 39.703 4.641 39.691 4.625 39.746 4.648 39.848 4.66 39.891 4.75 39.902 4.984 39.902 5.164 39.871" fill="#ffffff"/>
</g>
<g clip-path="url(#clip_41)">
<path d="M5.383 42.773C5.48 42.762 5.551 42.738 5.594 42.73 5.594 42.664 5.57 42.527 5.535 42.477 5.5 42.477 5.391 42.484 5.246 42.504 5.094 42.527 4.992 42.551 4.949 42.563 4.934 42.617 4.961 42.738 4.992 42.809 5.047 42.809 5.195 42.809 5.383 42.773" fill="#ffffff"/>
</g>
<g clip-path="url(#clip_42)">
<path d="M4.734 29.941C4.664 29.941 4.492 29.949 4.332 29.918 4.324 30.316 4.309 30.719 4.309 30.809 4.301 30.918 4.309 31.316 4.332 31.863 4.398 31.855 4.477 31.84 4.555 31.84H4.746C4.723 31.375 4.711 31.063 4.711 30.996L4.723 30.551C4.723 30.387 4.734 30.105 4.734 29.941" fill="#ffffff"/>
</g>
<g clip-path="url(#clip_43)">
<path d="M4.781 32.539C4.75 32.539 4.703 32.551 4.648 32.551 4.523 32.551 4.426 32.551 4.355 32.539 4.391 33.352 4.438 34.32 4.48 35.246 4.492 35.602 4.504 35.934 4.523 36.266 4.582 36.258 4.66 36.258 4.727 36.258 4.836 36.242 4.914 36.242 4.969 36.242 4.926 35.41 4.883 34.512 4.836 33.695 4.813 33.285 4.805 32.887 4.781 32.539" fill="#ffffff"/>
</g>
<g clip-path="url(#clip_44)">
<path d="M4.305 29.789C4.371 29.813 4.559 29.824 4.719 29.824 4.738 29.813 4.762 29.813 4.781 29.813V29.746C4.613 29.691 4.449 29.648 4.293 29.613 4.293 29.672 4.293 29.746 4.305 29.789" fill="#ffffff"/>
</g>
<g clip-path="url(#clip_45)">
<path d="M4.555 32.078C4.43 32.078 4.344 32.09 4.309 32.102 4.285 32.148 4.297 32.258 4.32 32.313 4.363 32.32 4.484 32.32 4.641 32.32 4.73 32.32 4.785 32.313 4.82 32.301 4.828 32.258 4.82 32.133 4.801 32.078ZM4.555 32.078" fill="#ffffff"/>
</g>
<g clip-path="url(#clip_46)">
<path d="M6.113 47.879C6.215 47.844 6.301 47.813 6.332 47.801 6.332 47.746 6.313 47.625 6.289 47.559 6.246 47.559 6.121 47.566 5.969 47.602 5.777 47.625 5.68 47.656 5.656 47.668 5.656 47.691 5.699 47.887 5.734 47.945 5.801 47.957 5.934 47.938 6.113 47.879" fill="#ffffff"/>
</g>
<g clip-path="url(#clip_47)">
<path d="M8.754 38.738C8.41 38.609 8.074 38.574 7.762 38.641 7.754 38.652 7.73 38.652 7.711 38.664 7.652 38.707 7.609 38.762 7.551 38.832 8.766 38.609 9.5 39.867 9.5 39.867 9.414 39.473 9.223 38.918 8.754 38.738" fill="#ffffff"/>
</g>
<g clip-path="url(#clip_48)">
<path d="M7.613 38.578C6.078 39.57 5.531 42.063 5.586 42.063 5.586 42.063 5.82 41.836 5.734 43.195 6.18 40.324 7.078 39.301 7.613 38.578" fill="#ffffff"/>
</g>
<g clip-path="url(#clip_49)">
<path d="M.281 42.555C1.563 43.102 3.41 44.5 4.898 46.371 5.035 46.414 5.152 46.449 5.277 46.496 3.91 44.355 1.941 42.734 1.031 42.512 .77 42.457 .527 42.469 .281 42.555" fill="#ffffff"/>
</g>
<g clip-path="url(#clip_50)">
<path d="M6.563 48.379C6.586 48.469 6.605 48.547 6.621 48.637 6.875 46.809 8.375 44.008 8.375 44.008 7.977 44.496 6.809 45.652 6.563 48.379" fill="#ffffff"/>
</g>
<g clip-path="url(#clip_51)">
<path d="M5.383 46.34C5.207 45.473 5.039 44.563 4.949 43.828 4.918 43.527 4.895 43.281 4.871 43.094 4.816 43.063 4.77 43.051 4.738 43.051 4.715 43.484 5.004 44.941 5.418 46.5 5.406 46.441 5.395 46.398 5.383 46.34" fill="#ffffff"/>
</g>
<g clip-path="url(#clip_52)">
<path d="M4.191 46.711C4.816 46.723 4.941 46.809 5.418 46.777 3.828 46.039 1.559 45.688 .055 46.688-.391 46.977-.711 47.379-.922 47.887-.813 47.777-.688 47.676-.555 47.578 .535 46.867 2.523 46.676 4.191 46.711" fill="#ffffff"/>
</g>
<g clip-path="url(#clip_53)">
<path d="M.844 30.641C.82 30.629 .785 30.629 .766 30.629 .297 30.719-.148 30.938-.57 31.309-1.305 31.922-1.902 32.875-2.383 33.91-2.07 33.688 .055 31.395 1.207 30.852 1.09 30.742 .953 30.66 .844 30.641" fill="#ffffff"/>
</g>
<g clip-path="url(#clip_54)">
<path d="M3.531 35.25C3.813 36.109 4.07 37.055 4.266 38.02 4.145 36.652 4.012 35.438 3.879 34.672 3.766 34.852 3.656 35.039 3.531 35.25" fill="#ffffff"/>
</g>
<g clip-path="url(#clip_55)">
<path d="M1.332 30.609C1.898 31.078 2.668 32.664 3.191 34.137 3.32 33.656 3.613 33.234 3.68 33.223 3.301 32.164 2.73 31.188 2.086 30.777 1.977 30.707 1.621 30.633 1.332 30.609" fill="#ffffff"/>
</g>
<g clip-path="url(#clip_56)">
<path d="M10.133 30.352C10.109 29.957 10.039 29.57 9.922 29.215 9.586 28.281 9.129 27.535 8.531 27.391 8.438 27.391 8.352 27.457 8.242 27.578 8.707 27.891 9.051 28.371 9.332 28.926 9.477 29.215 9.586 29.516 9.66 29.836 9.777 30.328 9.93 31.129 9.93 31.805 9.93 31.805 10.188 31.527 10.133 30.352" fill="#ffffff"/>
</g>
<g clip-path="url(#clip_57)">
<path d="M7.762 27.43C6.254 28.617 5.395 32.914 5.074 36.273 5.082 36.473 5.098 36.66 5.105 36.863 5.227 36.219 5.375 35.586 5.539 34.98 6.117 31.938 7.098 29.133 7.91 27.84 8.066 27.586 8.211 27.395 8.352 27.25 8.098 27.285 7.855 27.363 7.762 27.43" fill="#ffffff"/>
</g>
<g clip-path="url(#clip_58)">
<path d="M1.363 34.012C1.766 34.469 2.207 35.188 2.617 36.09 2.688 35.867 2.742 35.656 2.797 35.457 2.508 34.813 2.207 34.355 1.965 34.156 1.863 34.09 1.75 34.031 1.641 34.012 1.551 34 1.465 34 1.363 34.012" fill="#ffffff"/>
</g>
<g clip-path="url(#clip_59)">
<path d="M2.871 36.668C2.941 36.836 4.23 39.25 4.461 40.137 4.285 38.973 3.441 37.07 3.105 36.191 3.027 36.367 2.941 36.523 2.871 36.668" fill="#ffffff"/>
</g>
<g clip-path="url(#clip_60)">
<path d="M1.762 33.871C1.707 33.824 1.652 33.781 1.598 33.746 .195 32.836-2.375 34.816-3.73 36.316-3.34 36.117-2.887 35.852-2.406 35.559-.984 34.691 .742 33.648 1.762 33.871" fill="#ffffff"/>
</g>
<g clip-path="url(#clip_61)">
<path d="M7.574 30.789C6.836 31.57 5.637 34.563 5.148 37.766 5.16 38.066 5.168 38.375 5.184 38.688 5.793 35.195 7.184 31.902 8.262 30.41 8.008 30.457 7.773 30.578 7.574 30.789" fill="#ffffff"/>
</g>
<g clip-path="url(#clip_62)">
<path d="M7.512 34.719C6.922 35.242 5.82 37.488 5.355 39.848 5.344 39.961 5.332 40.059 5.332 40.172 5.922 37.777 7.066 35.566 7.914 34.52 7.77 34.555 7.637 34.609 7.512 34.719" fill="#ffffff"/>
</g>
<g clip-path="url(#clip_63)">
<path d="M8.293 34.27C8.113 34.234 7.938 34.27 7.746 34.402 7.781 34.402 7.813 34.402 7.836 34.414 8.395 34.527 8.914 35.48 9.371 36.324 9.516 36.594 9.648 36.852 9.785 37.051 9.551 35.883 9.004 34.426 8.293 34.27" fill="#ffffff"/>
</g>
<g clip-path="url(#clip_64)">
<path d="M1.902 37C2.445 37.855 4.469 41.125 4.781 42.684 4.781 42.535 4.793 42.395 4.793 42.25 4.516 40.547 2.691 37.266 2.246 36.813 2.035 36.887 1.934 36.922 1.902 37" fill="#ffffff"/>
</g>
<g clip-path="url(#clip_65)">
<path d="M2.133 36.691C2.102 36.68 2.055 36.668 2.023 36.66 .477 36.332-1.383 39.805-2.082 41.473-1.828 41.16-1.504 40.715-1.148 40.242-.059 38.781 1.242 37.016 2.133 36.691" fill="#ffffff"/>
</g>
<g clip-path="url(#clip_66)">
<path d="M4.023 34.371C4.066 34.594 4.109 34.895 4.156 35.25 4.277 36.105 4.402 37.184 4.488 38.242 4.523 38.707 4.547 39.211 4.578 39.699 4.488 37.316 4.277 34.84 4.133 34.227 4.102 34.25 4.066 34.293 4.023 34.371" fill="#ffffff"/>
</g>
<g clip-path="url(#clip_67)">
<path d="M3.852 33.441C3.555 33.738 3.133 34.883 2.652 36.707 2.66 36.688 2.676 36.664 2.676 36.652 3.418 35.164 3.91 34.219 4.23 33.738 4.219 33.605 4.207 33.508 4.207 33.461 4.008 33.418 3.875 33.426 3.852 33.441" fill="#ffffff"/>
</g>
<g clip-path="url(#clip_68)">
<path d="M6.152 45.926C6.152 45.926 6.422 41.418 9.402 41.566 9.402 41.566 5.418 40.43 6.152 45.926" fill="#ffffff"/>
</g>
<g clip-path="url(#clip_69)">
<path d="M.953 37.879C2.363 39.672 3.742 42.016 4.621 44.23 4.52 43.629 4.469 43.172 4.477 42.973 4.477 42.926 4.488 42.883 4.559 42.809 3.867 40.992 2.809 38.945 1.43 37.422 1.242 37.566 1.063 37.758 .953 37.879" fill="#ffffff"/>
</g>
<g clip-path="url(#clip_70)">
<path d="M.363 37.148C.52 37.004 .688 36.871 .809 36.785 .098 36.117-.695 35.613-1.551 35.359-.949 35.773-.293 36.395 .363 37.148" fill="#ffffff"/>
</g>
<g clip-path="url(#clip_71)">
<path d="M21.652 39.031C21.652 38.773 21.441 38.563 21.188 38.563 20.922 38.563 20.711 38.773 20.711 39.031V40.02H21.652ZM21.652 39.031" fill="#ffffff"/>
</g>
<g clip-path="url(#clip_72)">
<path d="M20.633 43.52C21.09 43.797 21.324 43.977 21.801 43.598 22.176 43.32 22.91 42.688 23.711 41.973L23.211 36.113H19.086L18.531 42.496C19.176 42.082 19.117 42.598 20.633 43.52M20.121 39.039C20.121 38.449 20.598 37.969 21.176 37.969 21.766 37.969 22.242 38.449 22.242 39.039V40.316C22.242 40.473 22.109 40.605 21.945 40.605H20.406C20.254 40.605 20.121 40.473 20.121 40.316ZM20.121 39.039" fill="#ffffff"/>
</g>
<g clip-path="url(#clip_73)">
<path d="M14.664 44.602C15.988 44.344 15.699 44.723 17.379 43.402 17.574 43.234 17.758 43.098 17.898 42.98L18.035 41.488C17.922 41.387 17.801 41.277 17.656 41.109 17.621 41.066 17.586 41.02 17.543 40.965 17.355 40.754 17.008 40.82 16.922 41.074 16.766 41.453 16.695 41.809 16.176 41.977 15.84 42.086 15.762 42.254 15.586 42.508 15.094 43.266 15.188 43.223 14.762 42.832 14.582 42.676 14.617 42.711 14.504 42.465 14.227 41.852 13.438 42.543 12.93 42.887 12.77 42.988 12.316 43.324 12.078 43.258 12.059 43.047 12.406 42.742 12.527 42.633 12.98 42.211 13.961 41.477 13.906 40.797 13.863 40.23 13.695 39.918 13.449 39.496 13.094 38.906 12.426 39.164 11.938 39.551 11.371 39.996 11.672 40.02 10.902 40.453 10.789 42.754 10.77 44.781 10.891 46.293 12.18 45.582 13.949 44.734 14.664 44.602" fill="#ffffff"/>
</g>
<g clip-path="url(#clip_74)">
<path d="M29.32 52.789C28.723 52.613 28.277 52.32 27.801 52 27.578 51.844 27.344 51.699 27.086 51.543V52.598C27.145 52.633 27.199 52.68 27.262 52.711 27.82 53.078 28.422 53.492 29.32 53.703ZM29.32 52.789" fill="#ffffff"/>
</g>
<g clip-path="url(#clip_75)">
<path d="M29.32 55.363C28.723 55.184 28.277 54.895 27.801 54.574 27.578 54.418 27.344 54.27 27.086 54.117V55.172C27.145 55.207 27.199 55.25 27.262 55.281 27.82 55.652 28.422 56.063 29.32 56.273ZM29.32 55.363" fill="#ffffff"/>
</g>
<g clip-path="url(#clip_76)">
<path d="M25.641 52.746C25.266 52.668 24.84 52.617 24.352 52.617 23.961 52.617 23.617 52.645 23.305 52.703V53.594C23.605 53.527 23.953 53.492 24.352 53.492 24.863 53.492 25.285 53.547 25.641 53.648ZM25.641 52.746" fill="#ffffff"/>
</g>
<g clip-path="url(#clip_77)">
<path d="M25.641 50.164C25.266 50.086 24.84 50.031 24.352 50.031 23.961 50.031 23.617 50.066 23.305 50.121V51.008C23.605 50.945 23.953 50.91 24.352 50.91 24.863 50.91 25.285 50.965 25.641 51.066ZM25.641 50.164" fill="#ffffff"/>
</g>
<g clip-path="url(#clip_78)">
<path d="M23.301 55.23V56.121C23.602 56.063 23.945 56.02 24.344 56.02 24.859 56.02 25.281 56.086 25.637 56.176V55.273C25.262 55.199 24.836 55.145 24.344 55.145 23.957 55.145 23.609 55.176 23.301 55.23" fill="#ffffff"/>
</g>
<g clip-path="url(#clip_79)">
<path d="M21.863 51.418C21.508 51.594 21.199 51.805 20.906 51.996 20.484 52.285 20.086 52.539 19.582 52.719V53.641C20.375 53.418 20.93 53.051 21.441 52.719 21.586 52.617 21.723 52.527 21.863 52.441ZM21.863 51.418" fill="#ffffff"/>
</g>
<g clip-path="url(#clip_80)">
<path d="M21.863 53.988C21.508 54.168 21.199 54.379 20.906 54.566 20.484 54.855 20.086 55.113 19.582 55.293V56.215C20.375 55.992 20.93 55.625 21.441 55.293 21.586 55.191 21.723 55.102 21.863 55.012ZM21.863 53.988" fill="#ffffff"/>
</g>
<g clip-path="url(#clip_81)">
<path d="M16.043 52.508C16.566 52.699 17.191 52.828 18 52.828H18.145V51.953H18C17.133 51.953 16.543 51.797 16.043 51.551ZM16.043 52.508" fill="#ffffff"/>
</g>
<g clip-path="url(#clip_82)">
<path d="M7.145 50.551C6.82 49.559 6.422 48.328 6.375 48.047 6.375 48.047 6.031 48.16 5.875 48.16 5.867 48.16 6.164 49.25 6.441 50.293ZM7.145 50.551" fill="#ffffff"/>
</g>
<g clip-path="url(#clip_83)">
<path d="M9.484 53.746C9.484 53.746 11.133 54.379 12.031 54.68 12.512 54.848 13.313 55.027 13.48 54.637 13.633 54.293 13.18 53.715 12.531 53.324 10.863 52.324 8.316 51.645 6.191 50.723 5.078 50.23 3.832 49.453 3.285 48.52L1.387 52.969C2.273 53.836 3.266 54.637 5.27 55.492 6.613 56.07 8.293 56.539 8.293 56.539ZM9.484 53.746" fill="#ffffff"/>
</g>
<g clip-path="url(#clip_84)">
<path d="M55.242 50.719C53.121 51.652 50.57 52.32 48.906 53.332 48.258 53.723 47.813 54.289 47.957 54.633 48.125 55.035 48.938 54.844 49.402 54.676 50.305 54.379 51.949 53.742 51.949 53.742L53.152 56.539C53.152 56.539 54.82 56.066 56.164 55.5 58.168 54.645 59.16 53.844 60.047 52.965L58.145 48.527C57.613 49.461 56.355 50.227 55.242 50.719" fill="#ffffff"/>
</g>
<g clip-path="url(#clip_85)">
<path d="M12.102 38.809C12.371 38.566 12.77 38.297 13.238 38.566 13.328 38.621 14.641 39.965 15.129 40.367 15.363 40.555 15.605 40.523 15.828 40.391 16.844 39.711 17.109 39.777 17.922 40.523 17.984 40.59 18.043 40.633 18.102 40.691L18.508 35.887 17.699 34.641V34.629H17.688C17.688 34.617 17.688 34.617 17.676 34.605V34.594C17.676 34.594 17.676 34.582 17.664 34.582V34.57C17.664 34.563 17.664 34.563 17.656 34.551V34.496C17.645 34.496 17.645 34.484 17.645 34.484V31.672C17.645 31.504 17.777 31.367 17.941 31.367H19.223C19.391 31.367 19.523 31.504 19.523 31.672V32.648H20.211V31.672C20.211 31.504 20.344 31.367 20.504 31.367H21.793C21.945 31.367 22.082 31.504 22.082 31.672V32.648H22.77V31.672C22.77 31.504 22.906 31.367 23.074 31.367H24.348C24.516 31.367 24.652 31.504 24.652 31.672V34.484C24.652 34.484 24.652 34.496 24.641 34.496V34.539C24.641 34.551 24.641 34.551 24.625 34.551V34.582C24.617 34.582 24.617 34.594 24.617 34.594V34.605C24.605 34.617 24.605 34.617 24.605 34.629H24.594V34.641L23.781 35.887 24.262 41.48C24.984 40.879 25.477 40.438 25.941 40.109 27.844 38.766 28.746 39.301 29.176 39.68 29.512 39.965 30.223 40.547 30.324 40.621V27.988C29.121 27.922 28.488 27.488 27.777 26.977 26.965 26.406 26.039 25.754 24.273 25.754 22.504 25.754 21.582 26.406 20.766 26.977 20 27.531 19.332 28 17.922 28 16.508 28 15.844 27.531 15.063 26.977 14.539 26.609 13.949 26.207 13.113 25.973 13.461 22.996 13.84 19.957 14.242 17.008 14.316 16.422 14.707 15.93 15.203 15.773 21.602 13.82 27.508 13.605 29.715 13.605 30.133 13.605 30.414 13.617 30.547 13.617H30.68C31.445 13.594 38.398 13.426 46.016 15.773 46.531 15.93 46.91 16.422 46.984 17.008 47.387 19.957 47.766 22.996 48.109 25.984 47.297 26.219 46.707 26.609 46.184 26.977 45.418 27.531 44.738 28 43.336 28 41.926 28 41.254 27.531 40.48 26.977 39.668 26.406 38.742 25.754 36.973 25.754 35.219 25.754 34.293 26.406 33.484 26.977 32.793 27.465 32.191 27.887 31.09 27.977V40.836C32.262 40.059 32.824 38.879 33.914 37.965 34.496 37.488 34.797 37.297 35.363 37.418 36.465 37.645 37.008 38.668 37.898 37.707 39.301 36.219 41.035 35.598 42.301 36.484L43.359 37.277 43.648 37.5C44.473 38.055 44.527 37.723 45.328 37.234 46.051 36.797 46.961 35.887 48.418 37.074L50.164 38.879C49.789 30.914 48.512 21.238 47.922 16.887 47.797 15.93 47.152 15.141 46.297 14.875 38.523 12.48 31.434 12.648 30.66 12.672H30.566C29.789 12.648 22.703 12.48 14.941 14.875 14.074 15.141 13.441 15.93 13.305 16.887 12.738 21.125 11.359 31.883 10.938 39.789 11.191 39.609 11.445 39.422 11.695 39.18 11.848 39 11.938 38.965 12.102 38.809" fill="#ffffff"/>
</g>
<g clip-path="url(#clip_86)">
<path d="M18.852 59.395C18.688 59.363 18.555 59.395 18.445 59.473 18.332 59.551 18.266 59.672 18.242 59.816 18.211 59.961 18.23 60.094 18.309 60.215 18.375 60.332 18.5 60.406 18.668 60.441 18.832 60.461 18.965 60.441 19.078 60.363 19.188 60.273 19.254 60.164 19.277 60.004 19.301 59.859 19.277 59.727 19.207 59.605 19.133 59.496 19.02 59.43 18.852 59.395" fill="#ffffff"/>
</g>
<g clip-path="url(#clip_87)">
<path d="M40.051 59.82C39.938 59.836 39.816 59.855 39.703 59.867 39.727 60.023 39.746 60.18 39.77 60.336 39.883 60.313 40.008 60.301 40.117 60.277 40.195 60.266 40.262 60.246 40.309 60.199 40.359 60.156 40.371 60.09 40.359 60.012 40.352 59.934 40.316 59.879 40.262 59.844 40.207 59.82 40.129 59.813 40.051 59.82" fill="#ffffff"/>
</g>
<g clip-path="url(#clip_88)">
<path d="M36.941 60.191C36.844 60.203 36.754 60.215 36.656 60.215 36.664 60.383 36.688 60.539 36.699 60.707 36.801 60.691 36.887 60.684 36.984 60.672 37.211 60.648 37.32 60.559 37.309 60.406 37.289 60.238 37.168 60.172 36.941 60.191" fill="#ffffff"/>
</g>
<g clip-path="url(#clip_89)">
<path d="M33.703 60.402C33.535 60.414 33.414 60.469 33.324 60.57 33.234 60.672 33.188 60.805 33.199 60.949 33.199 61.102 33.258 61.227 33.344 61.328 33.445 61.426 33.578 61.473 33.746 61.461 33.914 61.449 34.047 61.395 34.133 61.293 34.215 61.184 34.258 61.059 34.246 60.902 34.246 60.758 34.191 60.629 34.09 60.535 34 60.438 33.871 60.395 33.703 60.402" fill="#ffffff"/>
</g>
<g clip-path="url(#clip_90)">
<path d="M30.293 60.484H30.004V60.965C30.094 60.965 30.191 60.973 30.293 60.973 30.516 60.973 30.641 60.883 30.625 60.73 30.641 60.563 30.516 60.484 30.293 60.484" fill="#ffffff"/>
</g>
<g clip-path="url(#clip_91)">
<path d="M31.941 60.477H31.598V60.941H31.957C32.031 60.941 32.098 60.918 32.152 60.875 32.211 60.844 32.23 60.773 32.23 60.699 32.23 60.621 32.199 60.563 32.145 60.531 32.098 60.488 32.031 60.477 31.941 60.477" fill="#ffffff"/>
</g>
<g clip-path="url(#clip_92)">
<path d="M17.141 59.055C17.031 59.031 16.918 59.012 16.809 58.988 16.785 59.109 16.75 59.23 16.73 59.352 16.84 59.375 16.961 59.398 17.086 59.43 17.152 59.441 17.207 59.43 17.262 59.41 17.309 59.387 17.34 59.352 17.355 59.289 17.375 59.164 17.309 59.086 17.141 59.055" fill="#ffffff"/>
</g>
<g clip-path="url(#clip_93)">
<path d="M14.813 58.539C14.727 58.516 14.637 58.496 14.559 58.473 14.469 58.809 14.379 59.141 14.301 59.465 14.391 59.484 14.48 59.516 14.57 59.527 14.734 59.574 14.871 59.563 14.98 59.508 15.082 59.441 15.16 59.328 15.191 59.16 15.234 58.996 15.227 58.859 15.16 58.762 15.09 58.648 14.98 58.582 14.813 58.539" fill="#ffffff"/>
</g>
<g clip-path="url(#clip_94)">
<path d="M17.043 59.691C16.918 59.672 16.797 59.637 16.664 59.613 16.641 59.75 16.609 59.895 16.574 60.027 16.699 60.051 16.82 60.082 16.941 60.105 17.031 60.129 17.109 60.129 17.164 60.105 17.23 60.094 17.262 60.039 17.285 59.961 17.313 59.816 17.23 59.734 17.043 59.691" fill="#ffffff"/>
</g>
<g clip-path="url(#clip_95)">
<path d="M13.164 58.125C13.141 58.168 13.117 58.203 13.094 58.234 12.961 58.402 12.84 58.582 12.707 58.746 12.883 58.793 13.063 58.848 13.242 58.895 13.207 58.68 13.184 58.469 13.164 58.258ZM13.164 58.125" fill="#ffffff"/>
</g>
<g clip-path="url(#clip_96)">
<path d="M30.723 58.57C23.711 58.559 16.715 57.371 10.031 55.02 9.277 56.801 8.52 58.426 7.906 60.07 14.914 62.531 22.824 63.777 30.711 63.754H30.73C38.621 63.777 46.527 62.531 53.535 60.07 52.922 58.426 52.164 56.801 51.414 55.02 44.723 57.371 37.727 58.559 30.723 58.57M13.316 59.539C13.301 59.426 13.281 59.316 13.27 59.203 13.023 59.137 12.77 59.074 12.516 58.992 12.445 59.082 12.379 59.168 12.313 59.262 12.191 59.227 12.07 59.184 11.945 59.148 12.324 58.691 12.691 58.223 13.059 57.758 13.191 57.793 13.316 57.824 13.438 57.859 13.512 58.449 13.59 59.039 13.68 59.629 13.563 59.594 13.438 59.563 13.316 59.539M15.547 59.25C15.492 59.496 15.383 59.66 15.191 59.773 15.016 59.883 14.77 59.906 14.492 59.84 14.281 59.781 14.07 59.727 13.871 59.684 14.004 59.148 14.137 58.613 14.281 58.082 14.48 58.137 14.684 58.191 14.883 58.234 15.16 58.305 15.359 58.426 15.473 58.613 15.586 58.793 15.605 59.004 15.547 59.25M17.594 59.781C17.652 59.859 17.664 59.961 17.641 60.07 17.617 60.16 17.586 60.227 17.531 60.285 17.484 60.34 17.418 60.371 17.34 60.383 17.273 60.406 17.195 60.414 17.117 60.414 17.051 60.414 16.977 60.406 16.883 60.383 16.652 60.34 16.406 60.285 16.16 60.227 16.285 59.691 16.406 59.16 16.52 58.625 16.762 58.672 16.996 58.727 17.238 58.781 17.418 58.813 17.551 58.883 17.629 58.973 17.719 59.059 17.754 59.168 17.719 59.305 17.684 59.48 17.574 59.582 17.398 59.605 17.484 59.648 17.551 59.707 17.594 59.781M19.531 60.383C19.477 60.473 19.41 60.551 19.32 60.617 19.242 60.684 19.133 60.727 19.008 60.762 18.887 60.785 18.754 60.785 18.609 60.762 18.465 60.727 18.344 60.684 18.23 60.617 18.121 60.551 18.039 60.473 17.988 60.371 17.93 60.285 17.887 60.184 17.875 60.07 17.852 59.969 17.852 59.859 17.875 59.75 17.895 59.637 17.941 59.539 17.996 59.438 18.051 59.352 18.121 59.27 18.207 59.203 18.297 59.137 18.398 59.094 18.52 59.074 18.641 59.047 18.773 59.047 18.922 59.074 19.051 59.105 19.176 59.148 19.285 59.215 19.387 59.285 19.465 59.359 19.531 59.449 19.59 59.539 19.621 59.637 19.641 59.75 19.664 59.848 19.664 59.961 19.641 60.07 19.633 60.184 19.59 60.285 19.531 60.383M21.258 61.148C21.145 61.141 21.031 61.117 20.922 61.105 20.711 60.719 20.5 60.316 20.297 59.926 20.297 59.992 20.289 60.063 20.277 60.152 20.23 60.43 20.188 60.707 20.145 60.984 20.02 60.961 19.898 60.953 19.777 60.93 19.867 60.383 19.953 59.848 20.043 59.305 20.156 59.316 20.266 59.336 20.375 59.359 20.578 59.75 20.777 60.152 20.988 60.539 20.988 60.473 21 60.395 21.012 60.316 21.055 60.039 21.098 59.75 21.133 59.473 21.258 59.496 21.379 59.504 21.488 59.527 21.41 60.07 21.332 60.605 21.258 61.148M23.156 60.77C23.156 60.871 23.137 60.953 23.09 61.016 23.059 61.098 23.012 61.148 22.961 61.195 22.91 61.238 22.844 61.273 22.781 61.297 22.715 61.316 22.633 61.34 22.566 61.34 22.504 61.34 22.422 61.34 22.348 61.332 22.27 61.332 22.188 61.309 22.125 61.285 22.059 61.262 21.992 61.227 21.934 61.195 21.867 61.148 21.824 61.105 21.781 61.051 21.746 60.996 21.711 60.93 21.703 60.852 21.68 60.77 21.68 60.684 21.691 60.594 21.734 60.25 21.781 59.918 21.832 59.57 21.949 59.582 22.066 59.605 22.18 59.613 22.133 59.949 22.09 60.285 22.059 60.617 22.023 60.852 22.133 60.984 22.379 61.016 22.633 61.051 22.781 60.953 22.813 60.719 22.844 60.383 22.891 60.051 22.926 59.715 23.047 59.727 23.156 59.738 23.281 59.75 23.238 60.094 23.203 60.438 23.156 60.77M25.285 61.605C25.16 61.594 25.039 61.586 24.914 61.57 24.938 61.238 24.969 60.895 25.008 60.559 24.84 60.77 24.672 60.973 24.492 61.184 24.426 61.172 24.359 61.164 24.281 61.164 24.16 60.93 24.039 60.695 23.902 60.461 23.871 60.793 23.836 61.129 23.805 61.461 23.68 61.449 23.559 61.441 23.434 61.43 23.5 60.887 23.559 60.34 23.613 59.793 23.727 59.805 23.836 59.816 23.949 59.828 24.105 60.129 24.27 60.43 24.438 60.738 24.648 60.473 24.871 60.203 25.082 59.938 25.195 59.938 25.305 59.949 25.414 59.961 25.371 60.508 25.328 61.051 25.285 61.605M27.453 60.406C27.176 60.395 26.906 60.371 26.629 60.363 26.629 60.473 26.617 60.594 26.605 60.707 26.863 60.727 27.105 60.738 27.363 60.75 27.352 60.852 27.352 60.961 27.34 61.063 27.098 61.051 26.84 61.027 26.594 61.016 26.586 61.141 26.574 61.262 26.574 61.383 26.852 61.395 27.129 61.418 27.41 61.43 27.41 61.527 27.41 61.641 27.395 61.738 26.996 61.719 26.586 61.695 26.184 61.672 26.215 61.117 26.262 60.574 26.297 60.027 26.684 60.051 27.074 60.07 27.461 60.094 27.461 60.195 27.453 60.305 27.453 60.406M28.988 60.473C28.809 60.461 28.641 60.461 28.465 60.461 28.453 60.895 28.441 61.34 28.418 61.785 28.297 61.785 28.188 61.773 28.063 61.773 28.074 61.332 28.098 60.887 28.109 60.438 27.941 60.438 27.773 60.43 27.598 60.414 27.605 60.316 27.605 60.203 27.617 60.105 28.074 60.129 28.531 60.137 28.988 60.152ZM30.277 61.285C30.188 61.285 30.098 61.285 30 61.273V61.816H29.633C29.645 61.262 29.652 60.719 29.652 60.172H30.289C30.766 60.184 31 60.363 31.012 60.727 31.012 61.098 30.766 61.285 30.277 61.285M32.348 61.805C32.191 61.617 32.031 61.43 31.879 61.238H31.609C31.609 61.43 31.625 61.629 31.625 61.816H31.254C31.246 61.273 31.246 60.727 31.246 60.172 31.465 60.172 31.699 60.172 31.922 60.16 32.012 60.16 32.09 60.172 32.168 60.184 32.246 60.203 32.309 60.227 32.379 60.262 32.445 60.305 32.5 60.363 32.535 60.43 32.578 60.508 32.602 60.582 32.602 60.684 32.613 60.938 32.492 61.105 32.246 61.184 32.426 61.383 32.594 61.594 32.77 61.797 32.625 61.797 32.492 61.797 32.348 61.805M34.582 61.207C34.547 61.316 34.504 61.406 34.426 61.496 34.359 61.57 34.27 61.641 34.16 61.695 34.035 61.754 33.914 61.785 33.758 61.785 33.613 61.797 33.48 61.773 33.371 61.73 33.246 61.695 33.148 61.629 33.066 61.551 32.992 61.473 32.934 61.383 32.902 61.285 32.855 61.184 32.836 61.086 32.824 60.961 32.824 60.852 32.848 60.75 32.879 60.641 32.914 60.539 32.957 60.449 33.035 60.363 33.102 60.285 33.191 60.215 33.301 60.16 33.414 60.117 33.547 60.086 33.68 60.07 33.824 60.07 33.961 60.086 34.07 60.129 34.191 60.172 34.293 60.227 34.359 60.305 34.438 60.383 34.504 60.473 34.547 60.574 34.594 60.66 34.617 60.77 34.617 60.887 34.625 60.996 34.617 61.105 34.582 61.207M36.094 61.383C36.059 61.449 36.016 61.508 35.961 61.551 35.906 61.586 35.84 61.617 35.762 61.641 35.684 61.664 35.594 61.688 35.504 61.688 35.27 61.707 35.047 61.664 34.859 61.586 34.859 61.473 34.848 61.352 34.848 61.238 35.027 61.352 35.238 61.395 35.461 61.375 35.672 61.359 35.773 61.309 35.762 61.195 35.762 61.148 35.727 61.117 35.684 61.086 35.637 61.051 35.57 61.027 35.504 61.004 35.438 60.996 35.359 60.973 35.281 60.953 35.191 60.918 35.113 60.895 35.047 60.863 34.98 60.828 34.926 60.785 34.871 60.719 34.813 60.648 34.793 60.574 34.793 60.484 34.781 60.34 34.824 60.215 34.938 60.129 35.047 60.039 35.191 59.992 35.375 59.984 35.57 59.961 35.762 59.992 35.914 60.063 35.93 60.172 35.93 60.285 35.938 60.395 35.797 60.305 35.613 60.273 35.418 60.285 35.238 60.305 35.148 60.363 35.148 60.461 35.16 60.508 35.184 60.539 35.227 60.574 35.27 60.594 35.34 60.617 35.402 60.641 35.473 60.648 35.551 60.672 35.629 60.695 35.715 60.719 35.781 60.75 35.859 60.77 35.93 60.805 35.992 60.852 36.039 60.918 36.094 60.984 36.117 61.063 36.125 61.148 36.141 61.238 36.125 61.316 36.094 61.383M37.008 60.984C36.906 60.996 36.816 61.004 36.73 61.004 36.738 61.195 36.762 61.375 36.773 61.551 36.648 61.563 36.527 61.57 36.418 61.586 36.363 61.039 36.316 60.484 36.27 59.938 36.484 59.926 36.695 59.906 36.895 59.883 37.375 59.84 37.629 59.992 37.676 60.363 37.707 60.727 37.484 60.938 37.008 60.984M38.031 61.43C37.973 60.887 37.906 60.34 37.852 59.793 38.242 59.75 38.629 59.707 39.02 59.648 39.031 59.75 39.043 59.859 39.051 59.961 38.789 59.992 38.508 60.027 38.242 60.063 38.25 60.172 38.266 60.297 38.285 60.406 38.527 60.371 38.773 60.348 39.031 60.316 39.043 60.414 39.051 60.516 39.066 60.617 38.82 60.648 38.563 60.684 38.316 60.719 38.328 60.828 38.34 60.953 38.352 61.074 38.641 61.039 38.922 61.004 39.195 60.973 39.211 61.074 39.219 61.184 39.242 61.285 38.832 61.332 38.43 61.383 38.031 61.43M40.609 61.098C40.434 60.93 40.254 60.762 40.078 60.582 39.988 60.605 39.898 60.617 39.809 60.629 39.844 60.816 39.863 61.004 39.887 61.195 39.766 61.215 39.641 61.227 39.531 61.238 39.453 60.707 39.387 60.16 39.309 59.613 39.539 59.582 39.766 59.547 39.988 59.516 40.078 59.504 40.152 59.504 40.23 59.516 40.309 59.516 40.391 59.539 40.453 59.563 40.523 59.594 40.586 59.637 40.633 59.707 40.676 59.773 40.711 59.848 40.734 59.949 40.77 60.195 40.664 60.383 40.434 60.496 40.633 60.672 40.832 60.852 41.031 61.027 40.887 61.051 40.754 61.074 40.609 61.098M41.234 60.996C41.141 60.449 41.066 59.918 40.98 59.371 41.09 59.352 41.215 59.336 41.332 59.316 41.426 59.859 41.512 60.395 41.602 60.938 41.477 60.961 41.355 60.984 41.234 60.996M42.691 60.75C42.566 60.77 42.445 60.793 42.32 60.816 42.246 60.383 42.18 59.938 42.102 59.504 41.922 59.539 41.754 59.563 41.59 59.594 41.566 59.496 41.555 59.383 41.535 59.285 41.992 59.203 42.445 59.125 42.902 59.039 42.91 59.137 42.934 59.25 42.953 59.352 42.793 59.383 42.613 59.414 42.445 59.449 42.523 59.883 42.602 60.316 42.691 60.75M44.426 60.414C44.371 60.316 44.305 60.227 44.246 60.137 43.992 60.195 43.734 60.238 43.48 60.297 43.457 60.395 43.434 60.508 43.414 60.617 43.289 60.641 43.168 60.66 43.047 60.684 43.168 60.105 43.289 59.527 43.414 58.938 43.535 58.914 43.66 58.891 43.789 58.859 44.125 59.359 44.457 59.848 44.805 60.34 44.68 60.363 44.559 60.383 44.426 60.414M45.516 60.184C45.395 60.203 45.27 60.227 45.16 60.262 45.059 59.828 44.973 59.395 44.871 58.957 44.703 58.992 44.535 59.039 44.371 59.074 44.348 58.957 44.324 58.859 44.305 58.762 44.746 58.66 45.203 58.559 45.648 58.461 45.672 58.559 45.703 58.66 45.727 58.77 45.563 58.805 45.395 58.848 45.219 58.883 45.316 59.316 45.414 59.75 45.516 60.184M46.238 60.016C46.105 59.48 45.98 58.938 45.859 58.402 46.238 58.316 46.617 58.223 47.008 58.125 47.031 58.223 47.051 58.324 47.082 58.426 46.82 58.492 46.551 58.559 46.281 58.625 46.305 58.738 46.34 58.848 46.359 58.973 46.605 58.906 46.852 58.848 47.098 58.781 47.117 58.883 47.148 58.98 47.176 59.082 46.93 59.148 46.684 59.203 46.438 59.27 46.461 59.383 46.492 59.504 46.516 59.629 46.797 59.563 47.074 59.48 47.352 59.414 47.375 59.516 47.395 59.613 47.43 59.715 47.031 59.816 46.629 59.918 46.238 60.016M49.152 59.25C49.055 58.926 48.961 58.602 48.875 58.281 48.785 58.527 48.707 58.781 48.617 59.039 48.555 59.059 48.473 59.074 48.406 59.094 48.207 58.914 48.008 58.746 47.809 58.57 47.898 58.891 47.977 59.227 48.063 59.547 47.949 59.582 47.832 59.613 47.707 59.648 47.574 59.117 47.43 58.582 47.293 58.047 47.395 58.023 47.504 57.992 47.621 57.969 47.875 58.191 48.129 58.414 48.398 58.637 48.508 58.316 48.617 57.992 48.719 57.66 48.828 57.633 48.941 57.602 49.039 57.566 49.199 58.094 49.355 58.625 49.496 59.148 49.387 59.184 49.266 59.215 49.152 59.25" fill="#ffffff"/>
</g>
<g clip-path="url(#clip_97)">
<path d="M43.66 59.223C43.66 59.266 43.66 59.313 43.648 59.355 43.617 59.566 43.574 59.766 43.531 59.977 43.715 59.945 43.895 59.91 44.074 59.879 43.953 59.699 43.84 59.523 43.715 59.344 43.691 59.301 43.672 59.266 43.66 59.223" fill="#ffffff"/>
</g>
<g clip-path="url(#clip_98)">
<path d="M31.082 66.234V64.422C30.828 64.422 30.57 64.41 30.316 64.41V66.266C29.348 66.133 28.016 65.387 26.488 64.266 25.898 64.23 25.324 64.188 24.766 64.141 27.078 65.988 29.18 67.234 30.605 67.234 32.008 67.234 34.074 66.035 36.344 64.223 35.777 64.266 35.199 64.297 34.645 64.332 33.254 65.344 32.008 66.043 31.082 66.234" fill="#ffffff"/>
</g>
<g clip-path="url(#clip_99)">
<path d="M40.012 42.293C39.27 42.504 39.188 42.039 39.746 41.715 40.656 41.16 41.277 40.461 41.824 39.727 42.535 38.793 42.559 37.199 40.559 37.613 39.516 37.832 39 38.465 38.367 38.988 37.188 39.973 35.605 42.539 34.238 42.906 34.039 42.965 33.887 42.719 34.027 42.551 35.918 40.426 35.531 38.355 33.742 39.5 33.508 39.66 33.297 39.836 33.105 40.039 32.316 40.848 31.973 41.371 31.09 41.809V50.691C32.559 50.582 33.395 50.004 34.129 49.48 34.906 48.934 35.574 48.469 36.988 48.469 38.398 48.469 39.066 48.934 39.836 49.48 40.645 50.059 41.57 50.715 43.34 50.715 45.105 50.715 46.031 50.059 46.84 49.48 47.453 49.059 48 48.668 48.914 48.523 48.609 49.16 48.156 49.926 47.566 50.781 47.051 51.004 46.629 51.293 46.242 51.57 45.465 52.125 44.773 52.605 43.34 52.605 41.895 52.605 41.215 52.125 40.426 51.57 39.625 51.004 38.723 50.359 36.988 50.359 35.25 50.359 34.34 51.004 33.539 51.57 32.84 52.059 32.227 52.496 31.09 52.582V50.703H30.328V57.832C30.582 57.832 30.836 57.848 31.09 57.848V56.246C32.527 56.145 33.348 55.574 34.07 55.063 34.863 54.508 35.539 54.031 36.988 54.031 38.422 54.031 39.102 54.508 39.891 55.063 40.668 55.609 41.559 56.23 43.191 56.266 43.027 56.441 42.852 56.633 42.684 56.813 43.215 56.711 43.738 56.602 44.262 56.477 47.102 53.23 49.359 50.078 49.98 48.402 50.402 47.254 50.488 44.754 50.379 41.594 48.078 40.414 46.707 41.48 46.707 41.48 45.953 41.949 44.941 42.574 44.207 42.672 43.984 42.703 43.863 42.418 44.051 42.281 45.309 41.363 46.809 38.457 45.363 38.488 44.438 38.512 42.051 41.703 40.012 42.293M44.035 55.285C43.828 55.32 43.594 55.344 43.34 55.344 41.895 55.344 41.215 54.852 40.426 54.309 39.625 53.742 38.723 53.094 36.988 53.094 35.25 53.094 34.34 53.742 33.539 54.297 32.84 54.797 32.227 55.219 31.09 55.32V53.516C32.527 53.406 33.348 52.84 34.07 52.328 34.863 51.773 35.539 51.293 36.988 51.293 38.422 51.293 39.102 51.773 39.891 52.328 40.691 52.895 41.605 53.543 43.34 53.543 44.605 53.543 45.43 53.195 46.098 52.785 45.473 53.594 44.785 54.43 44.035 55.285" fill="#ffffff"/>
</g>
<g clip-path="url(#clip_100)">
<path d="M33.531 57.035C33.074 57.355 32.652 57.648 32.098 57.836 32.754 57.836 33.41 57.813 34.078 57.793 34.867 57.234 35.543 56.758 36.977 56.758 38.023 56.758 38.672 57.012 39.246 57.371 39.703 57.313 40.172 57.246 40.629 57.168 40.563 57.125 40.492 57.078 40.426 57.035 39.629 56.469 38.715 55.836 36.977 55.836 35.242 55.836 34.332 56.469 33.531 57.035" fill="#ffffff"/>
</g>
<g clip-path="url(#clip_101)">
<path d="M30.32 41.734C30.152 41.578 29.941 41.398 29.535 41.09 28.602 40.398 28.012 39.898 27.063 40.422 26.918 40.5 26.773 40.609 26.641 40.734 26.172 41.133 24.707 42.422 22.238 44.547 21.227 45.414 20.344 46.27 18.711 46.859 16.563 47.652 20.324 43.914 18.875 43.258 18.367 43.27 17.977 43.793 17.742 44.059 15.461 46.508 15.164 44.805 13.461 45.504 13.336 46.27 14.637 46.996 12.59 46.559 12.156 46.473 11.535 46.695 10.945 46.918 11.012 47.527 11.113 48.039 11.246 48.41 11.871 50.078 14.105 53.191 16.918 56.418 17.129 56.461 17.652 56.57 18.445 56.707 17.945 56.148 17.465 55.602 16.988 55.047 17.332 55.105 17.711 55.137 18.141 55.129V54.246C18.098 54.246 18.043 54.258 18 54.258 17.129 54.258 16.539 54.09 16.043 53.848V53.914C14.305 51.801 12.938 49.852 12.324 48.52 13.238 48.664 13.809 49.051 14.418 49.488 15.23 50.055 16.152 50.711 17.922 50.711 19.691 50.711 20.613 50.055 21.422 49.488 22.195 48.941 22.859 48.461 24.27 48.461 25.684 48.461 26.352 48.941 27.133 49.488 27.887 50.02 28.754 50.621 30.32 50.699ZM30.32 41.734" fill="#ffffff"/>
</g>
<g clip-path="url(#clip_102)">
<path d="M27.082 57.711C27.695 57.746 28.313 57.781 28.949 57.801 28.527 57.621 28.172 57.391 27.789 57.145 27.57 56.988 27.336 56.844 27.082 56.688ZM27.082 57.711" fill="#ffffff"/>
</g>
<g clip-path="url(#clip_103)">
<path d="M21.863 57.227V56.559C21.531 56.734 21.242 56.926 20.965 57.105 21.25 57.148 21.555 57.184 21.863 57.227" fill="#ffffff"/>
</g>
</g>
</svg>
